<svg width="902" height="817" viewBox="0 0 902 817" fill="none" xmlns="http://www.w3.org/2000/svg">
<path d="M334.908 833.521C360.352 845.9 382.828 837.22 410.644 836.985C432.878 836.815 454.637 835.294 474.235 822.792C425.645 792.765 386.395 741.118 355.138 693.442C347.479 681.747 336.54 667.455 332.481 653.683C326.55 633.236 334.303 629.832 349.214 644.227C375.852 669.857 398.64 699.895 423.015 727.601C442.029 749.221 465.256 777.928 494.557 784.762C536.191 794.46 582.152 751.531 621.677 740.258C572.153 737.987 517.156 690.298 481.158 658.709C465.295 644.791 449.72 629.784 431.917 619.144C418.483 611.126 410.866 607.418 405.123 592.107C427.644 575.922 462.157 601.791 481.906 613.98C511.295 632.176 536.15 658.836 566.523 675.277C632.889 711.169 692.109 651.708 718.3 594.423C698.129 597.657 674.646 595.524 654.457 591.978C603.049 582.906 537.07 566.551 493.225 536.712C477.895 526.294 458.173 515.223 478.422 502.25C498.492 489.358 520.277 502.621 539.254 511.551C584.971 533.052 652.053 579.975 704.121 558.849C732.122 547.477 754.925 515.845 766.685 489.422C765.799 489.564 764.914 489.707 764.028 489.85C760.366 485.339 729.178 485.849 722.187 484.598C707.961 482.032 693.739 478.898 679.605 475.767C661.737 471.815 642.59 470.404 625.228 465.656C616.417 463.232 595.442 456.78 603.128 444.66C608.355 436.489 644.236 431.142 652.237 429.931C686.012 424.891 731.441 416.583 743.047 377.784C748.181 360.647 737.957 348.815 735.419 332.565C733.006 317.172 738.733 302.899 745.803 289.406C715.779 279.42 688.035 263.259 659.876 248.289C579.068 205.404 499.608 288.931 474.51 361.166C471.938 368.518 473.876 380.254 466.69 383.574C459.416 386.89 451.979 379.445 449.106 374.096C440.151 357.682 452.255 309.213 459.172 292.395C468.712 269.203 481.744 246.29 495.097 225.059C506.936 206.128 531.313 194.275 540.625 176.061C503.951 187.34 469.326 186.153 434.66 204.22C410.877 216.628 400.938 231.037 390.227 255.852C375.712 289.318 363.9 330.736 357.471 366.74C355.45 378.018 360.4 400.131 340.752 392.595C328.025 387.692 320.476 356.319 318.303 344.733C308.051 290.485 331.818 228.082 360.575 184.032C366.357 175.173 370.686 168.369 377.74 160.714C386.354 151.435 395.956 150.713 382.454 145.815C367.303 140.32 339.408 150.294 325.781 155.898C307.075 163.555 291.581 173.273 279.374 188.977C267.539 204.164 266.278 224.452 254.49 239.356C257.201 277.46 255.196 314.667 252.98 352.754C251.755 374.375 256.911 394.827 256.962 416.215C231.33 417.76 218.624 357.363 212.946 339.498C198.187 293.005 195.128 238.436 200.354 190.317C167.993 206.114 126.939 234.577 119.57 272.142C107.87 332.003 136.879 372.261 158.212 424.852C138.748 437.555 111.505 388.049 102.805 375.479C91.3217 358.912 82.945 341.19 74.5762 322.811C68.5237 309.599 65.1566 289.767 54.3126 280.307C43.9814 290.761 39.7858 302.29 35.4258 316.245C27.0397 343.263 14.9556 367.615 3.06391 393.359C-11.5966 425.151 -8.11849 472.088 -0.207288 505.906C21.3423 597.869 112.312 559.748 176.431 559.631C185.508 583.344 145.311 612.853 130.979 625.74C97.5895 655.801 69.1761 698.694 90.5098 743.104C110.609 784.856 148.076 818.952 189.629 838C220.995 852.422 270.193 875.817 304.415 871.487C290.547 843.344 277.221 817.085 271.015 785.144C268.824 774.002 248.925 715.752 261.603 711.496C282.984 751.489 291.274 812.333 334.908 833.521ZM422.981 655.813C421.252 688.63 349.793 642.919 374.022 629.871L372.76 626.574C393.328 629.904 406.866 641.139 422.981 655.813ZM510.137 346.491C522.019 340.074 527.668 330.536 539.48 320.016C550.45 304.44 569.103 274.526 591.089 283.042C580.741 300.292 529.752 363.485 510.137 346.491ZM146.97 465.618C150.288 474.462 144.141 490.494 139.056 499.078C124.846 493.371 127.251 477.175 125.564 464.845L126.827 468.142C132.08 462.919 139.474 445.623 146.97 465.618ZM71.3295 484.217C72.7961 483.157 74.3845 483.041 75.8963 482.178L72.6262 483.451C71.8465 473.145 50.9793 381.742 92.1643 421.628C110.178 439.091 108.944 506.8 97.2623 523.484C79.0301 517.565 71.9129 501.401 71.3295 484.217Z" fill="#EFEEE9"/>
<g opacity="0.7">
<path d="M286.027 527.972C286.027 527.972 269.641 536.094 245.054 548.26C232.709 554.323 218.301 561.37 202.87 568.927C195.106 572.597 187.04 576.362 178.881 580.213C170.724 584.063 162.422 587.979 153.976 591.571C145.562 595.235 137.164 598.935 128.909 602.57C120.526 605.917 112.25 609.215 104.276 612.418C100.29 614.02 96.3587 615.553 92.5154 617.089C88.6237 618.518 84.7912 619.789 81.0627 621.1C73.6253 623.669 66.6143 626.13 60.1211 628.398C53.6924 630.811 47.5471 632.314 42.224 633.919C36.8848 635.488 32.223 636.835 28.362 637.946C20.6918 640.189 16.2968 641.457 16.2968 641.457C16.2968 641.457 20.5987 639.885 28.0952 637.159C31.8435 635.796 36.4123 634.145 41.6423 632.236C46.8563 630.291 52.8245 628.392 59.0599 625.549C65.3597 622.849 72.1771 619.956 79.389 616.883C83.0048 615.321 86.7245 613.798 90.4674 612.134C94.1979 610.346 97.9643 608.542 101.838 606.689C109.55 602.999 117.513 599.194 125.603 595.288C133.58 591.131 141.664 586.924 149.733 582.681C157.85 578.547 165.838 574.124 173.683 569.768C181.527 565.411 189.264 561.103 196.731 556.961C211.587 548.411 225.436 540.406 237.304 533.565C261.026 519.759 276.841 510.555 276.841 510.555C284.438 506.224 291.848 501.763 299.649 497.599L323.274 485.309C331.099 481.004 339.316 477.863 347.395 474.222C355.535 470.813 363.586 467.011 371.847 464.066L396.575 454.911C404.84 451.878 413.123 449.269 421.413 446.485C438.01 440.951 454.572 435.822 471.238 430.733C471.238 430.733 475.585 429.357 483.155 426.987C490.712 424.493 501.674 421.312 514.533 416.877C527.343 412.333 542.555 407.561 558.225 401.021C574.165 394.791 590.717 388.195 606.132 378.87C637.26 360.69 665.812 337.148 688.963 322.26C700.673 314.971 710.365 308.862 717.676 305.528C724.806 301.887 728.882 299.811 728.882 299.811C728.882 299.811 724.97 302.158 718.086 306.25C711.073 310.055 701.794 316.798 690.706 324.799C685.346 329.019 679.513 333.627 673.37 338.507C667.292 343.531 660.903 348.825 654.28 354.271C647.589 359.66 640.879 365.491 633.586 370.982C629.991 373.747 626.377 376.565 622.711 379.363C618.996 382.053 615.093 384.612 611.275 387.263C603.77 392.764 595.451 397.121 587.423 401.647C583.44 404.027 579.338 405.854 575.321 407.773C571.304 409.691 567.358 411.577 563.449 413.447C547.923 421.177 532.931 427.018 520.24 432.503C507.501 437.879 496.754 441.828 489.299 444.838C481.811 447.777 477.541 449.421 477.541 449.421L428.653 467.647C420.563 470.686 412.341 473.527 404.267 476.603L380.118 485.797C371.948 488.657 364.24 492.259 356.267 495.463C348.41 498.829 340.256 501.725 332.66 505.579L309.428 516.434C301.628 520.121 293.814 524.161 286.027 527.972Z" fill="#485C8E"/>
</g>
<g opacity="0.7">
<path d="M556.332 465.905C556.332 465.905 551.444 463.581 544.139 460.104C540.437 458.497 536.095 456.618 531.476 454.605C526.759 452.854 521.733 450.896 516.648 449.097C511.496 447.631 506.359 445.812 501.456 444.71C496.514 443.713 491.914 442.516 487.904 441.961C479.826 441.008 474.445 440.385 474.445 440.385C474.445 440.385 479.876 440.638 488.013 441.043C492.086 441.352 496.768 442.251 501.849 442.881C506.906 443.651 512.162 445.156 517.504 446.274C522.764 447.69 527.96 449.352 532.901 450.828C537.726 452.53 542.203 454.13 546.072 455.531C553.679 458.522 558.757 460.499 558.757 460.499C577.981 468.296 596.404 477.588 615.17 485.811C615.17 485.811 620.121 487.889 627.584 490.946C631.385 492.291 635.83 493.82 640.567 495.518C645.407 496.866 650.575 498.367 655.789 499.587C658.428 500.074 661.103 500.544 663.69 501.012C666.297 501.427 668.841 502.087 671.374 502.145C676.398 502.453 681.111 503.034 685.162 503.006C693.292 502.72 698.726 502.494 698.726 502.494C698.726 502.494 693.313 503.057 685.194 503.946C681.111 504.293 676.352 503.994 671.225 504.036C668.632 504.136 666.046 503.669 663.344 503.428C660.661 503.134 657.927 502.821 655.209 502.544C649.824 501.619 644.465 500.465 639.419 499.429C634.475 498.042 629.843 496.773 625.908 495.706C618.11 493.062 612.953 491.295 612.953 491.295C593.328 484.246 574.801 474.915 556.332 465.905Z" fill="#485C8E"/>
<path d="M575.276 364.617C575.276 364.617 572.781 367.925 569.056 372.922C565.314 377.883 560.221 384.46 554.856 390.813C552.173 393.99 549.303 397.036 546.703 399.915C543.899 402.627 541.313 405.152 539.094 407.337C534.287 411.267 531.099 413.894 531.099 413.894C531.099 413.894 534.102 411.048 538.605 406.823C540.652 404.543 543.069 401.835 545.669 398.956C548.065 395.91 550.66 392.73 553.118 389.439C558.003 382.784 562.58 375.924 566.013 370.756C569.395 365.569 571.649 362.111 571.649 362.111C580.202 348.881 589.19 335.756 599.884 323.932C599.884 323.932 602.771 320.923 607.129 316.373C609.332 314.153 612.157 311.778 615.03 309.121C617.97 306.521 621.446 304.152 624.702 301.581C628.259 299.392 631.799 297.168 635.202 295.31C638.785 293.76 642.052 292.18 644.931 291.082C650.912 289.39 654.864 288.279 654.864 288.279C654.864 288.279 650.989 289.659 645.185 291.747C642.387 293.025 639.252 294.804 635.837 296.537C632.603 298.578 629.283 301.006 625.982 303.381C622.931 306.119 619.695 308.638 617.03 311.373C614.382 314.144 611.833 316.653 609.802 318.968C605.859 323.674 603.249 326.818 603.249 326.818C593.558 339.05 584.701 351.986 575.276 364.617Z" fill="#485C8E"/>
<path d="M407.932 369.042C407.932 369.042 407.792 375.403 407.536 384.988C407.297 394.609 407.133 407.496 405.402 420.361C403.744 433.194 400.102 445.847 395.432 454.365C393.074 458.57 390.94 462.021 389.125 464.154C387.378 466.342 386.392 467.618 386.392 467.618C386.392 467.618 387.31 466.286 388.885 464.003C390.579 461.795 392.437 458.21 394.499 453.923C398.488 445.238 401.227 432.693 402.015 420.042C402.856 407.41 402.168 394.651 401.788 385.096C401.377 375.469 401.097 369.039 401.097 369.039C399.813 344.305 404.659 319.158 413.523 296.127C413.523 296.127 414.097 294.605 415.07 291.945C416.236 289.328 417.885 285.664 419.867 281.196C420.874 278.999 421.96 276.591 423.122 274.063C424.44 271.593 425.798 269.018 427.247 266.358C428.696 263.698 430.148 260.949 431.657 258.131C433.182 255.349 434.966 252.666 436.631 249.907C439.976 244.426 443.322 238.945 446.837 234.037C450.3 229.11 453.332 224.38 456.256 220.568C461.984 212.869 465.826 207.725 465.826 207.725C465.826 207.725 462.344 213.095 457.13 221.168C454.447 225.13 451.723 230.067 448.64 235.168C445.469 240.265 442.504 245.92 439.575 251.559C438.119 254.396 436.542 257.158 435.226 260.018C433.945 262.862 432.649 265.669 431.444 268.392C430.222 271.078 429.021 273.712 427.895 276.224C426.961 278.779 426.051 281.193 425.184 283.414C423.538 287.858 422.168 291.567 421.215 294.175C420.453 296.825 420.003 298.333 420.003 298.333C412.866 321.357 408.294 344.989 407.932 369.042Z" fill="#485C8E"/>
<path d="M448.654 554.119C448.654 554.119 447.269 552.668 444.925 550.134C442.509 547.634 439.282 543.897 435.467 539.43C427.823 530.46 418.343 518.159 407.836 506.848C397.436 495.489 385.407 485.613 374.748 480.93C369.448 478.749 364.849 477.072 361.501 476.648C358.145 476.01 356.257 475.657 356.257 475.657C356.257 475.657 358.185 475.905 361.568 476.313C364.978 476.492 369.696 477.853 375.292 479.726C386.435 483.753 399.457 493.045 410.83 503.873C422.275 514.667 432.608 526.362 440.722 534.64C444.779 538.779 448.161 542.184 450.624 544.403C453.067 546.674 454.475 547.984 454.475 547.984C459.937 552.654 465.434 557.307 471.455 560.809C474.301 562.723 477.636 564.282 480.9 565.873L490.636 570.718C503.77 576.875 517.302 582.373 531.134 586.995C531.134 586.995 532.939 587.647 536.117 588.757C539.275 589.919 543.952 590.995 549.487 592.635C555.025 594.186 561.5 596.091 568.616 597.399C575.728 598.795 583.242 600.702 590.904 601.587C606.18 604.116 621.634 605.305 633.269 605.98C644.918 606.302 652.662 606.497 652.662 606.497C652.662 606.497 644.896 606.833 633.214 607.308C621.546 607.43 605.908 607.281 590.361 605.788C582.537 605.412 574.86 604.012 567.554 603.052C560.259 602.217 553.538 600.729 547.81 599.525C542.065 598.286 537.165 597.485 533.912 596.497C530.602 595.577 528.722 595.047 528.722 595.047C514.237 591.287 500.059 586.085 486.44 579.715L476.364 574.592C473 572.872 469.668 571.224 466.417 568.888C459.702 564.705 454.09 559.409 448.654 554.119Z" fill="#485C8E"/>
<path d="M292.247 391.277C292.247 391.277 293.826 398.291 296.178 408.777C298.51 419.316 301.576 433.43 303.539 447.788C305.45 462.127 305.886 476.748 304.418 487.501C304.2 490.209 303.589 492.617 303.182 494.803C302.978 495.896 302.777 496.9 302.581 497.816C302.296 498.728 302.067 499.571 301.806 500.343C300.905 503.362 300.376 505.081 300.376 505.081C300.376 505.081 300.801 503.323 301.51 500.261C301.683 499.486 301.876 498.659 302.108 497.727C302.253 496.792 302.365 495.785 302.517 494.672C302.765 492.516 303.236 490.085 303.241 487.387C303.949 476.677 302.583 462.394 299.757 448.43C296.915 434.43 292.95 420.726 289.939 410.411C286.875 400.076 284.848 393.223 284.848 393.223C282.915 386.674 281.074 380.041 279.471 373.167L277.764 362.865L276.444 352.559C274.916 338.784 274.399 324.852 275.274 310.936C275.274 310.936 275.367 309.111 275.587 305.925C275.983 302.745 276.278 298.178 277.154 292.779C278.573 281.917 281.811 267.573 286.925 253.937C291.97 240.245 299.195 227.555 305.415 218.716C308.422 214.212 311.282 210.732 313.269 208.303C315.256 205.874 316.371 204.495 316.371 204.495C316.371 204.495 315.34 205.966 313.506 208.543C311.655 211.083 309.052 214.75 306.374 219.407C300.791 228.608 294.543 241.546 290.522 255.205C286.397 268.824 284.21 282.906 283.542 293.511C283.094 298.801 283.087 303.237 282.906 306.318C282.902 309.406 282.917 311.181 282.917 311.181C282.96 324.635 283.919 338.104 285.41 351.504L286.617 361.557L288.003 371.529C289.288 377.982 290.741 384.62 292.247 391.277Z" fill="#485C8E"/>
<path d="M389.299 608.546C389.299 608.546 387.949 607.076 385.586 604.505C383.259 601.916 379.956 598.21 375.977 593.768C368.037 584.922 357.539 573.07 346.508 561.767C343.732 558.949 340.956 556.132 338.249 553.37C335.414 550.71 332.611 548.122 329.892 545.626C324.586 540.443 319.025 536.334 314.508 532.529C312.244 530.565 309.977 529.079 308.024 527.712C306.034 526.361 304.32 525.144 302.896 524.187C300.032 522.236 298.403 521.111 298.403 521.111C298.403 521.111 300.107 522.114 303.103 523.875C304.583 524.763 306.408 525.842 308.509 527.055C310.611 528.269 312.989 529.616 315.348 531.407C320.16 534.903 326.052 538.687 331.725 543.528C334.607 545.906 337.629 548.306 340.648 550.796C343.591 553.406 346.534 556.017 349.529 558.648C361.418 569.255 372.737 580.427 381.248 588.709C385.485 592.858 389.028 596.325 391.538 598.742C394.032 601.123 395.438 602.524 395.438 602.524C400.9 607.766 406.326 613.023 411.736 618.245C417.103 623.661 422.342 629.178 427.437 634.761C437.608 645.979 447.451 657.434 457.263 668.817C457.263 668.817 458.577 670.303 460.832 672.924C463.087 675.545 466.374 679.215 470.356 683.568C478.356 692.257 489.168 703.748 501.163 713.915C513.047 724.22 526.194 732.992 536.809 738.139C539.491 739.391 541.948 740.529 544.109 741.585C546.369 742.378 548.369 743.072 550.003 743.629C553.273 744.744 555.168 745.399 555.168 745.399C555.168 745.399 553.249 744.885 549.901 743.981C548.226 743.529 546.203 742.975 543.848 742.356C541.592 741.474 539.023 740.475 536.282 739.38C525.233 734.909 511.261 726.905 498.519 717.296C485.65 707.789 473.896 696.903 465.241 688.687C460.896 684.587 457.337 681.084 454.919 678.581C452.445 676.147 451.023 674.71 451.023 674.71C440.357 663.935 430.131 652.786 420.009 641.676L404.804 625.107C399.613 619.698 394.446 614.148 389.299 608.546Z" fill="#485C8E"/>
<path d="M189.876 450.787C189.876 450.787 192.63 456.358 197.092 464.585C201.555 472.811 207.854 483.592 214.425 494.204C220.995 504.817 227.834 515.351 233 523.213C238.166 531.075 241.588 536.297 241.588 536.297C241.588 536.297 237.839 531.311 232.146 523.82C226.488 516.313 218.975 506.305 211.664 496.074C204.334 485.895 197.295 475.495 192.241 467.496C187.167 459.548 184.005 454.034 184.005 454.034C171.831 433.323 161.848 410.829 157.116 386.895C157.116 386.895 156.845 385.322 156.341 382.551C155.766 379.813 155.33 375.837 154.678 371.09C153.659 361.552 153.272 348.681 155.029 336.049C156.645 323.395 160.31 311.153 163.901 302.424C164.821 300.221 165.663 298.228 166.441 296.481C167.307 294.737 168.038 293.272 168.654 292.034C169.886 289.558 170.598 288.146 170.598 288.146C170.598 288.146 169.991 289.597 168.915 292.133C168.404 293.41 167.741 294.93 167.015 296.697C166.393 298.503 165.656 300.536 164.911 302.746C161.93 311.674 159.147 323.949 158.407 336.334C157.506 348.749 158.761 361.136 160.327 370.25C161.234 374.794 161.925 378.567 162.665 381.187C163.316 383.803 163.678 385.29 163.678 385.29C169.696 408.029 179.274 429.62 189.876 450.787Z" fill="#485C8E"/>
<path d="M282.646 653.128C282.646 653.128 281.998 651.293 280.807 648.052C279.705 644.815 277.808 640.287 276.151 634.65C274.458 629.029 272.253 622.554 270.301 615.485C268.474 608.403 266.241 600.897 264.576 593.306C260.946 578.13 257.973 562.872 255.904 551.377C253.96 539.868 252.703 532.221 252.703 532.221C252.703 532.221 254.492 539.799 257.185 551.14C259.987 562.431 263.976 577.443 268.594 592.211C270.759 599.661 273.48 606.901 275.739 613.786C278.142 620.605 280.727 626.863 282.748 632.247C284.784 637.668 286.921 641.956 288.187 645.075C289.561 648.145 290.318 649.931 290.318 649.931C293.201 656.661 296.68 663.076 299.763 669.672C303.026 676.186 306.649 682.535 309.968 688.98C313.774 695.159 317.289 701.557 321.168 707.703L327.129 716.856C329.069 719.928 331.044 722.985 333.255 725.89C333.255 725.89 334.375 727.423 336.329 730.142C338.374 732.774 340.907 736.881 344.646 741.264C348.349 745.663 352.401 751.034 357.25 756.345C359.7 759.01 362.219 761.732 364.806 764.509C367.357 767.302 369.996 770.099 372.819 772.725C383.708 783.587 395.478 793.611 404.501 800.888C413.692 807.958 419.836 812.678 419.836 812.678C419.836 812.678 413.409 808.392 403.752 801.926C394.227 795.27 381.77 786.037 370.043 775.819C367.001 773.38 364.162 770.718 361.375 768.076C358.588 765.434 355.833 762.863 353.183 760.333C347.883 755.271 343.399 750.097 339.336 745.863C335.217 741.697 332.344 737.702 330.102 735.115C327.917 732.459 326.653 730.992 326.653 730.992C324.174 728.165 322.002 725.155 319.851 722.092L313.34 712.972C309.145 706.797 305.405 700.284 301.502 693.888C298.05 687.244 294.49 680.648 291.326 673.871C288.382 666.908 285.146 660.164 282.646 653.128Z" fill="#485C8E"/>
<path d="M194.698 655.031C194.698 655.031 196.532 649.064 199.504 640.316C202.424 631.548 206.502 619.948 209.775 608.194C213.083 596.423 215.294 584.328 215.251 575.132C215.435 572.831 215.026 570.757 214.979 568.909C214.916 567.025 214.594 565.434 214.313 564.128C213.786 561.499 213.46 559.996 213.46 559.996C213.46 559.996 213.858 561.466 214.58 564.049C214.986 565.342 215.396 566.936 215.583 568.807C215.77 570.678 216.319 572.775 216.312 575.082C217.003 584.373 215.554 596.815 213.007 608.934C210.512 621.072 207.18 632.983 204.853 641.915C202.474 650.826 201.1 656.758 201.1 656.758C199.72 662.387 198.481 668.039 197.526 673.648C196.607 679.241 196.089 684.955 195.426 690.735C194.39 702.164 194.214 713.677 194.814 725.183C194.814 725.183 194.928 726.696 195.118 729.348C195.256 731.98 195.647 735.757 196.2 740.286C197.363 749.275 199.654 761.269 203.321 772.853C206.951 784.453 212.028 795.609 216.549 803.586C217.701 805.581 218.773 807.395 219.695 808.973C220.726 810.502 221.639 811.867 222.368 813.012C223.881 815.233 224.711 816.506 224.711 816.506C224.711 816.506 223.774 815.282 222.133 813.163C221.312 812.103 220.307 810.824 219.168 809.344C218.122 807.779 216.923 806.067 215.627 804.137C210.547 796.46 204.63 785.557 200.187 773.98C195.637 762.453 192.449 750.39 190.641 741.218C189.755 736.623 189.084 732.8 188.773 730.073C188.391 727.379 188.173 725.826 188.173 725.826C185.461 702.243 187.304 677.71 194.698 655.031Z" fill="#485C8E"/>
<path d="M171.522 534.37C171.522 534.37 174.078 535.635 177.877 537.548C181.731 539.393 186.959 541.696 192.246 543.842C197.553 545.936 202.975 547.803 207.063 549.106C211.191 550.305 213.942 551.133 213.942 551.133C213.942 551.133 211.148 550.498 206.921 549.562C202.734 548.521 197.189 547.058 191.691 545.312C186.23 543.55 180.795 541.559 176.79 539.957C172.804 538.302 170.136 537.175 170.136 537.175C160.061 532.742 150.438 527.19 141.75 520.342C141.75 520.342 139.535 518.487 136.177 515.72C134.544 514.294 132.714 512.523 130.727 510.694C128.761 508.812 126.841 506.648 124.829 504.569C122.965 502.336 121.153 500.123 119.461 497.985C117.949 495.765 116.502 493.689 115.271 491.905C113.117 488.154 111.652 485.651 111.652 485.651C111.652 485.651 113.245 488.052 115.654 491.6C116.976 493.299 118.535 495.236 120.211 497.338C122.014 499.338 123.974 501.397 125.933 503.457C128.04 505.361 130.071 507.387 132.133 509.095C134.215 510.751 136.105 512.364 137.813 513.669C141.27 516.173 143.564 517.819 143.564 517.819C152.582 523.951 161.928 529.369 171.522 534.37Z" fill="#485C8E"/>
</g>
</svg>
