<svg width="158" height="160" viewBox="0 0 158 160" fill="none" xmlns="http://www.w3.org/2000/svg">
<path d="M68.65 71.7527C65.5625 71.7527 63.0343 74.244 63.0343 77.3575C63.0343 80.5291 65.5625 83.0785 68.65 83.0785C71.7979 83.0785 74.2658 80.5291 74.2658 77.3575C74.2658 74.244 71.7979 71.7527 68.65 71.7527ZM68.65 107.146C65.5625 107.146 63.0343 109.692 63.0343 112.809C63.0343 115.978 65.5625 118.527 68.65 118.527C71.7979 118.527 74.2658 115.978 74.2658 112.809C74.2658 109.692 71.7979 107.146 68.65 107.146Z" fill="#FE85AA"/>
<path d="M137.317 92.5585V25.6475C137.317 17.1338 130.451 10.2073 122.005 10.2073H105.799V6.28912C105.799 3.16181 103.288 0.626221 100.184 0.626221C97.0797 0.626221 94.568 3.16181 94.568 6.28912V10.2073H42.7705V6.28912C42.7705 3.16181 40.2588 0.626221 37.1548 0.626221C34.0508 0.626221 31.5391 3.16181 31.5391 6.28912V10.2073H15.339C6.89345 10.2073 0.0273438 17.1338 0.0273438 25.6475V123.626C0.0273438 132.139 6.89345 139.066 15.339 139.066H91.1932C96.7527 150.935 108.705 159.188 122.564 159.188C141.698 159.188 157.268 143.487 157.268 124.19C157.268 110.217 149.085 98.1647 137.317 92.5585ZM122.564 147.862C109.616 147.862 99.0869 137.244 99.0869 124.19C99.0869 111.136 109.616 100.518 122.564 100.518C135.507 100.518 146.036 111.136 146.036 124.19C146.036 137.244 135.507 147.862 122.564 147.862ZM11.2588 25.6475C11.2588 23.3801 13.0905 21.5331 15.339 21.5331H31.5391V30.9897C30.0748 32.01 29.1151 33.716 29.1151 35.6488C29.1151 38.7762 31.6268 41.3117 34.7308 41.3117H37.1548C40.2588 41.3117 42.7705 38.7762 42.7705 35.6488V21.5331H94.568V30.9897C93.1037 32.01 92.144 33.716 92.144 35.6488C92.144 38.7762 94.6557 41.3117 97.7597 41.3117H100.184C103.288 41.3117 105.799 38.7762 105.799 35.6488V21.5331H122.005C124.253 21.5331 126.085 23.3801 126.085 25.6475V51.1472H11.2588V25.6475ZM15.339 127.74C13.0905 127.74 11.2588 125.893 11.2588 123.626V62.473H126.085V89.3721C124.927 89.2539 123.753 89.192 122.564 89.192C103.425 89.192 87.8554 104.892 87.8554 124.19C87.8554 125.388 87.9168 126.572 88.034 127.74H15.339Z" fill="black"/>
<path d="M132.693 118.527H128.18V113.976C128.18 110.848 125.668 108.313 122.564 108.313C119.46 108.313 116.949 110.848 116.949 113.976V124.19C116.949 127.317 119.46 129.853 122.564 129.853H132.693C135.798 129.853 138.309 127.317 138.309 124.19C138.309 121.063 135.798 118.527 132.693 118.527ZM32.3178 71.7527C29.2302 71.7527 26.7021 74.244 26.7021 77.3575C26.7021 80.5291 29.2302 83.0785 32.3178 83.0785C35.4657 83.0785 37.9335 80.5291 37.9335 77.3575C37.9335 74.244 35.4657 71.7527 32.3178 71.7527ZM105.043 71.7527C101.955 71.7527 99.4269 74.244 99.4269 77.3575C99.4269 80.5291 101.955 83.0785 105.043 83.0785C108.19 83.0785 110.658 80.5291 110.658 77.3575C110.658 74.244 108.19 71.7527 105.043 71.7527ZM32.3178 107.146C29.2302 107.146 26.7021 109.692 26.7021 112.809C26.7021 115.978 29.2302 118.527 32.3178 118.527C35.4657 118.527 37.9335 115.978 37.9335 112.809C37.9335 109.692 35.4657 107.146 32.3178 107.146Z" fill="#FE85AA"/>
</svg>
