<svg width="109" height="128" viewBox="0 0 109 128" fill="none" xmlns="http://www.w3.org/2000/svg">
<path d="M103.992 36.5564C103.934 35.3937 103.435 34.2978 102.598 33.496C101.761 32.6942 100.65 32.2477 99.4958 32.2492H81.2414V18.6474C81.2414 13.8375 79.3466 9.22464 75.9738 5.82354C72.6011 2.42244 68.0266 0.511719 63.2568 0.511719H45.2722C40.5024 0.511719 35.9279 2.42244 32.5551 5.82354C29.1824 9.22464 27.2876 13.8375 27.2876 18.6474V32.2492H9.03318C7.87867 32.2477 6.76785 32.6942 5.93083 33.496C5.09382 34.2978 4.59475 35.3937 4.53703 36.5564L0.31064 117.895C0.243336 119.127 0.426116 120.36 0.84779 121.518C1.26946 122.677 1.92116 123.736 2.76297 124.632C3.60479 125.527 4.61901 126.24 5.74355 126.727C6.86808 127.213 8.07927 127.463 9.30295 127.462H99.226C100.45 127.463 101.661 127.213 102.785 126.727C103.91 126.24 104.924 125.527 105.766 124.632C106.608 123.736 107.26 122.677 107.681 121.518C108.103 120.36 108.286 119.127 108.218 117.895L103.992 36.5564ZM9.30295 118.394L13.3045 41.317H27.2876V56.1883C25.5733 57.1864 24.2334 58.727 23.4759 60.5712C22.7184 62.4154 22.5855 64.4601 23.0978 66.3882C23.6102 68.3163 24.7391 70.0201 26.3096 71.2353C27.88 72.4504 29.8042 73.1091 31.7837 73.1091C33.7632 73.1091 35.6874 72.4504 37.2579 71.2353C38.8284 70.0201 39.9573 68.3163 40.4696 66.3882C40.982 64.4601 40.8491 62.4154 40.0915 60.5712C39.334 58.727 37.9942 57.1864 36.2799 56.1883V18.6474C36.2799 16.2425 37.2273 13.936 38.9137 12.2355C40.6001 10.5349 42.8873 9.57956 45.2722 9.57956H63.2568C65.6417 9.57956 67.9289 10.5349 69.6153 12.2355C71.3017 13.936 72.2491 16.2425 72.2491 18.6474V32.2492H49.7683C48.5759 32.2492 47.4323 32.7269 46.5891 33.5771C45.7459 34.4274 45.2722 35.5806 45.2722 36.7831C45.2722 37.9856 45.7459 39.1388 46.5891 39.9891C47.4323 40.8393 48.5759 41.317 49.7683 41.317H72.2491V56.1883C70.5348 57.1864 69.195 58.727 68.4375 60.5712C67.6799 62.4154 67.547 64.4601 68.0594 66.3882C68.5717 68.3163 69.7006 70.0201 71.2711 71.2353C72.8416 72.4504 74.7658 73.1091 76.7453 73.1091C78.7248 73.1091 80.649 72.4504 82.2194 71.2353C83.7899 70.0201 84.9188 68.3163 85.4312 66.3882C85.9435 64.4601 85.8106 62.4154 85.0531 60.5712C84.2955 58.727 82.9557 57.1864 81.2414 56.1883V41.317H95.2245L99.226 118.394H9.30295Z" fill="black"/>
</svg>
