<svg width="500" height="500" viewBox="0 0 500 500" fill="none" xmlns="http://www.w3.org/2000/svg">
<circle cx="250" cy="250" r="250" fill="#F1F1F1"/>
<path fill-rule="evenodd" clip-rule="evenodd" d="M100 293.747C100 289.475 103.465 286.01 107.744 286.01H370.889C372.942 286.01 374.911 286.825 376.363 288.277C377.814 289.728 378.63 291.697 378.63 293.75C378.63 295.803 377.814 297.772 376.363 299.224C374.911 300.675 372.942 301.491 370.889 301.491H107.744C106.726 301.491 105.719 301.292 104.779 300.903C103.839 300.514 102.986 299.944 102.266 299.224C101.547 298.505 100.977 297.651 100.588 296.711C100.199 295.772 99.9992 294.764 100 293.747Z" fill="#FE85AA"/>
<path fill-rule="evenodd" clip-rule="evenodd" d="M239.313 162.177C239.313 157.905 235.848 154.434 231.576 154.434H130.962C126.896 154.433 122.87 155.233 119.113 156.789C115.356 158.345 111.942 160.626 109.067 163.501C106.192 166.376 103.911 169.79 102.355 173.547C100.8 177.303 99.9992 181.33 100 185.396V324.71C100 328.775 100.801 332.801 102.357 336.558C103.913 340.314 106.194 343.727 109.069 346.601C111.944 349.476 115.358 351.756 119.114 353.312C122.871 354.867 126.897 355.667 130.962 355.666H347.67C355.881 355.666 363.754 352.405 369.56 346.599C375.365 340.794 378.627 332.92 378.627 324.71V229.048C378.627 226.996 377.812 225.028 376.361 223.576C374.91 222.125 372.941 221.31 370.889 221.31C368.837 221.31 366.869 222.125 365.418 223.576C363.967 225.028 363.152 226.996 363.152 229.048V324.71C363.15 328.815 361.518 332.751 358.615 335.653C355.712 338.555 351.775 340.185 347.67 340.185H130.962C126.858 340.185 122.921 338.555 120.018 335.653C117.114 332.751 115.483 328.815 115.481 324.71V185.396C115.481 181.29 117.112 177.353 120.016 174.449C122.919 171.546 126.857 169.915 130.962 169.915H231.576C235.848 169.915 239.313 166.45 239.313 162.177Z" fill="#2B3151"/>
<path fill-rule="evenodd" clip-rule="evenodd" d="M335.673 190.742C331.035 190.742 326.588 192.584 323.309 195.862C322.593 196.595 321.74 197.179 320.797 197.58C319.855 197.981 318.842 198.19 317.818 198.197C316.793 198.203 315.778 198.006 314.831 197.617C313.883 197.228 313.022 196.655 312.298 195.931C311.574 195.206 311 194.346 310.611 193.398C310.222 192.451 310.025 191.435 310.032 190.411C310.038 189.387 310.248 188.374 310.649 187.431C311.049 186.489 311.633 185.635 312.367 184.92C318.549 178.742 326.932 175.271 335.673 175.271C344.413 175.271 352.796 178.742 358.979 184.92C359.712 185.635 360.296 186.489 360.697 187.431C361.097 188.374 361.307 189.387 361.313 190.411C361.32 191.435 361.123 192.451 360.734 193.398C360.345 194.346 359.771 195.206 359.047 195.931C358.323 196.655 357.462 197.228 356.515 197.617C355.567 198.006 354.552 198.203 353.528 198.197C352.503 198.19 351.491 197.981 350.548 197.58C349.605 197.179 348.752 196.595 348.037 195.862C344.757 192.584 340.31 190.742 335.673 190.742ZM335.673 157.11C322.115 157.112 309.113 162.499 299.527 172.086C298.808 172.804 297.954 173.374 297.015 173.763C296.076 174.152 295.07 174.351 294.054 174.351C293.037 174.351 292.031 174.15 291.092 173.761C290.153 173.372 289.3 172.802 288.582 172.083C287.863 171.364 287.293 170.511 286.905 169.572C286.516 168.633 286.316 167.626 286.316 166.61C286.317 165.594 286.517 164.587 286.906 163.648C287.295 162.71 287.866 161.857 288.585 161.138C294.768 154.952 302.109 150.045 310.189 146.697C318.269 143.349 326.929 141.626 335.675 141.626C344.422 141.626 353.082 143.349 361.162 146.697C369.242 150.045 376.583 154.952 382.766 161.138C383.485 161.857 384.055 162.71 384.443 163.649C384.832 164.588 385.032 165.595 385.032 166.611C385.031 167.627 384.831 168.634 384.442 169.573C384.053 170.512 383.482 171.365 382.763 172.083C382.045 172.801 381.191 173.371 380.252 173.76C379.313 174.149 378.307 174.349 377.29 174.348C376.274 174.348 375.268 174.148 374.329 173.758C373.39 173.369 372.537 172.799 371.819 172.08C362.232 162.495 349.23 157.11 335.673 157.11Z" fill="#2B3151"/>
<path fill-rule="evenodd" clip-rule="evenodd" d="M335.675 123.477C313.199 123.479 291.645 132.41 275.753 148.304C274.301 149.755 272.333 150.57 270.28 150.569C268.228 150.569 266.259 149.753 264.808 148.301C263.357 146.849 262.542 144.88 262.543 142.828C262.544 140.775 263.359 138.807 264.811 137.356C283.608 118.56 309.102 108 335.684 108C362.266 108 387.76 118.56 406.557 137.356C408.008 138.808 408.823 140.777 408.822 142.829C408.822 144.882 408.006 146.85 406.554 148.301C405.102 149.752 403.133 150.567 401.081 150.566C399.028 150.566 397.06 149.75 395.609 148.298C387.739 140.428 378.396 134.186 368.114 129.927C357.831 125.668 346.805 123.477 335.675 123.477Z" fill="#2B3151"/>
</svg>
