<svg width="169" height="146" viewBox="0 0 169 146" fill="none" xmlns="http://www.w3.org/2000/svg">
<path d="M162.138 81.7949C161.278 81.0778 160.235 80.6187 159.129 80.47C158.022 80.3212 156.897 80.4887 155.88 80.9535C149.578 83.8617 142.726 85.3585 135.795 85.3408C122.974 85.3252 110.679 80.1989 101.591 71.0795C92.5032 61.9602 87.359 49.5875 87.2804 36.6591C87.3076 32.6073 87.8077 28.5729 88.7704 24.639C88.9747 23.5904 88.8981 22.506 88.5484 21.4972C88.1988 20.4885 87.5887 19.592 86.7812 18.9001C85.9736 18.2083 84.9978 17.746 83.9541 17.561C82.9104 17.376 81.8367 17.4749 80.8436 17.8476C71.5002 22.0841 63.3781 28.6463 57.2404 36.9175C51.1027 45.1887 47.1508 54.8975 45.756 65.1318C44.3612 75.3662 45.5692 85.7901 49.2666 95.4243C52.964 105.059 59.0294 113.587 66.8929 120.208C74.7565 126.829 84.1602 131.326 94.2205 133.276C104.281 135.226 114.668 134.565 124.405 131.355C134.143 128.146 142.911 122.493 149.887 114.927C156.863 107.362 161.817 98.132 164.284 88.1055C164.584 86.9575 164.541 85.7455 164.159 84.6224C163.777 83.4993 163.074 82.5154 162.138 81.7949ZM105.518 122.002C95.5157 121.931 85.7797 118.744 77.643 112.877C69.5063 107.011 63.3668 98.7514 60.065 89.2301C56.7633 79.7089 56.4607 69.3912 59.1988 59.6898C61.9368 49.9885 67.5817 41.3777 75.3603 35.0364V36.6591C75.3761 52.8172 81.7484 68.3088 93.0787 79.7343C104.409 91.1597 119.772 97.5855 135.795 97.6014C140.002 97.617 144.198 97.1737 148.311 96.2792C144.198 104.125 138.039 110.69 130.497 115.266C122.956 119.841 114.319 122.254 105.518 122.243V122.002Z" fill="black"/>
<path d="M138.963 5.14831C138.963 2.57836 141.036 0.487549 143.585 0.487549C146.133 0.487549 148.207 2.57836 148.207 5.14831V15.0797C148.207 17.6496 146.133 19.7404 143.585 19.7404C141.036 19.7404 138.963 17.6496 138.963 15.0797V5.14831Z" fill="#FE85AA"/>
<path d="M138.963 38.9062C138.963 36.3362 141.036 34.2454 143.585 34.2454C146.133 34.2454 148.207 36.3362 148.207 38.9062V47.1387C148.207 49.7087 146.133 51.7995 143.585 51.7995C141.036 51.7995 138.963 49.7087 138.963 47.1387V38.9062Z" fill="#FE85AA"/>
<path d="M121.987 21.4828H131.836C134.384 21.4828 136.458 23.5736 136.458 26.1435C136.458 28.7135 134.384 30.8043 131.836 30.8043H121.987C119.438 30.8043 117.365 28.7135 117.365 26.1435C117.365 23.5736 119.438 21.4828 121.987 21.4828Z" fill="#FE85AA"/>
<path d="M155.464 21.4828H163.628C166.176 21.4828 168.25 23.5736 168.25 26.1435C168.25 28.7135 166.176 30.8043 163.628 30.8043H155.464C152.915 30.8043 150.842 28.7135 150.842 26.1435C150.842 23.5736 152.915 21.4828 155.464 21.4828Z" fill="#FE85AA"/>
<path d="M17.0636 110.933C17.0636 109.021 18.6064 107.465 20.5027 107.465C22.399 107.465 23.9418 109.021 23.9418 110.933V118.323C23.9418 120.235 22.399 121.791 20.5027 121.791C18.6064 121.791 17.0636 120.235 17.0636 118.323V110.933Z" fill="#CCCCCC"/>
<path d="M17.0636 136.052C17.0636 134.139 18.6064 132.584 20.5027 132.584C22.399 132.584 23.9418 134.139 23.9418 136.052V142.177C23.9418 144.09 22.399 145.645 20.5027 145.645C18.6064 145.645 17.0636 144.09 17.0636 142.177V136.052Z" fill="#CCCCCC"/>
<path d="M4.43212 123.087H11.7603C13.6566 123.087 15.1994 124.643 15.1994 126.555C15.1994 128.468 13.6566 130.023 11.7603 130.023H4.43212C2.53579 130.023 0.993011 128.468 0.993011 126.555C0.993011 124.643 2.53579 123.087 4.43212 123.087Z" fill="#CCCCCC"/>
<path d="M29.3415 123.087H35.4162C37.3125 123.087 38.8553 124.643 38.8553 126.555C38.8553 128.468 37.3125 130.023 35.4162 130.023H29.3415C27.4452 130.023 25.9024 128.468 25.9024 126.555C25.9024 124.643 27.4452 123.087 29.3415 123.087Z" fill="#CCCCCC"/>
</svg>
