<svg width="716" height="164" viewBox="0 0 716 164" fill="none" xmlns="http://www.w3.org/2000/svg">
<path d="M459.997 95.5906C462.849 93.8395 465.119 91.5195 468.656 91.5445C471.048 91.5615 473.878 91.4621 475.743 90.2309C478.934 88.125 482.189 88.555 485.518 88.5143C489.025 88.4716 492.532 88.5048 496.002 88.5048C496.987 83.8959 494.266 80.3667 489.887 80.3638C489.37 80.3635 488.827 80.4679 488.339 80.3474C484.274 79.344 482.532 82.4335 480.186 84.7474C478.965 85.9511 477.127 86.7898 475.432 87.1587C473.553 87.5676 471.519 87.2571 469.552 87.2513C464.736 87.2372 461.813 84.3616 461.614 79.6788C461.578 78.8294 460.741 78.0352 460.372 77.1725C460.113 76.5664 459.7 75.7448 459.91 75.2649C460.925 72.9379 462.142 70.7011 463.251 68.4142C463.471 67.9604 463.53 67.4274 463.432 67.7932C464.993 66.4827 465.999 65.6385 467.005 64.7925C467.517 64.3612 467.963 63.7049 468.55 63.5321C471.035 62.7997 473.683 62.5023 476.048 61.5076C480.77 59.5223 485.743 59.8001 490.577 59.8328C495.728 59.8677 501.231 60.0336 505.912 61.8721C510.109 63.5205 515.208 65.2749 517.471 69.8032C519.172 73.2085 522.124 76.3113 521.392 80.7856C521.197 81.9797 522.315 83.3677 522.733 84.6976C522.973 85.461 523.133 86.2862 523.135 87.084C523.159 99.2949 523.365 111.513 522.975 123.711C522.896 126.202 520.751 128.754 519.213 131.043C515.642 136.36 510.098 133.875 505.363 134.108C501.972 134.274 499.794 131.679 499.26 127.929C498.724 128.126 497.924 128.184 497.795 128.51C497.159 130.124 496.282 131.047 494.382 131.194C493.386 131.271 492.541 132.642 491.498 132.911C489.089 133.529 485.81 132.996 484.309 134.438C481.29 137.338 478.084 135.532 475.035 136.02C474.368 136.127 473.575 135.188 472.79 134.85C472.099 134.553 471.339 134.25 470.609 134.25C467.722 134.248 465.397 133.122 462.873 131.691C460.973 130.613 459.278 129.669 457.709 128.072C456.588 126.932 456.084 125.621 455.276 124.491C452.525 120.643 452.455 116.394 452.274 111.343C451.44 112.381 450.582 112.955 450.562 113.556C450.453 116.826 449.202 119.42 446.891 121.718C445.495 123.107 444.835 125.364 443.304 126.475C440.746 128.33 437.774 129.615 434.94 131.069C433.511 131.803 432.033 132.466 430.523 133.007C429.101 133.517 427.627 133.943 426.141 134.186C424.626 134.433 422.847 133.643 421.896 135.693C421.743 136.023 420.782 136.078 420.194 136.081C413.777 136.107 407.36 136.132 400.944 136.046C400.263 136.037 399.597 135.309 398.912 134.939C398.431 134.679 397.948 134.32 397.433 134.246C394.217 133.78 390.952 133.572 387.788 132.882C386.174 132.53 384.633 131.502 383.241 130.519C380.042 128.261 376.88 125.933 373.872 123.427C373.108 122.79 372.713 121.407 372.607 120.32C372.345 117.651 372.305 114.957 372.259 112.271C372.216 109.722 372.981 107.917 374.816 105.65C378.907 100.598 383.973 100.519 389.13 101.258C391.398 101.583 394.537 102.878 395.564 105.617C396.875 109.111 399.807 110.495 402.566 112.243C405.454 114.074 408.653 114.012 411.913 114.34C414.993 114.648 416.747 112.288 419.348 111.9C420.316 111.756 421.208 111.09 422.18 110.641C422.583 109.617 423.028 108.417 423.526 107.239C424.528 104.872 423.692 102.506 422.082 101.272C419.985 99.6637 416.772 99.4734 414.799 97.775C412.077 95.4307 407.964 98.4628 405.876 94.8804C405.783 94.7222 405.29 94.806 404.984 94.7698C401.449 94.3517 397.359 94.9046 394.526 93.2575C391.262 91.3591 387.582 91.071 384.25 89.2177C379.979 86.842 377.892 82.6856 374.078 80.2214C373.15 79.6218 372.477 77.9687 372.422 76.7658C372.249 72.9875 369.267 69.8175 370.322 65.7664C370.703 64.3019 370.546 62.6309 370.353 61.09C369.748 56.2531 371.863 51.6903 374.04 48.2064C376.161 44.811 378.957 40.7476 383.884 39.4621C386.563 38.7631 388.801 36.3843 391.28 34.8305C391.669 34.5865 392.279 34.6975 392.788 34.6505C394.598 34.4831 396.689 35.3586 397.912 33.0204C398.096 32.6685 399.266 32.7817 399.98 32.7799C406.501 32.7642 413.021 32.763 419.541 32.775C421.623 32.7788 426.192 34.6419 429.184 36.325C430.474 37.0505 432.05 37.2832 433.517 37.6606C438.084 38.8362 440.321 42.8773 443.436 45.8331C443.819 46.1967 444.277 46.7974 444.238 47.2476C443.875 51.432 445.236 55.717 443.108 59.8275C441.895 62.1699 439.005 64.6993 436.406 64.7074C435.061 64.7115 433.7 64.5746 432.373 64.7311C426.485 65.4252 422.191 63.3682 419.381 57.9058C418.75 56.6792 416.861 55.8731 415.385 55.3825C413.222 54.6638 411.306 52.2153 408.841 53.5061C405.859 55.0671 401.841 54.6304 399.899 58.2344C397.591 62.5176 399.205 65.9607 402.96 67.8035C407.586 70.0739 412.956 69.7858 417.512 71.3935C420.9 72.5892 424.438 72.4999 427.801 73.7627C431.02 74.9707 434.555 75.9174 437.651 77.3997C441.022 79.0145 444.338 81.4204 446.7 84.2976C448.693 86.724 448.731 90.7337 450.621 93.3053C453.994 97.8951 451.283 102.913 452.624 107.567C452.784 107.488 453.261 107.338 453.25 107.246C452.612 101.752 456.688 99.0357 459.997 95.5906ZM479.061 110.86C479.082 114.671 481.713 117.488 485.429 117.226C486.832 117.127 488.117 115.891 489.543 115.472C493.963 114.175 497.075 108.916 495.951 104.024C492.641 105.222 489.214 102.956 485.486 105.672C483.441 107.162 480.302 107.348 479.061 110.86Z" fill="white"/>
<path d="M211.407 86.4693C211.348 85.3244 211.291 84.4503 211.233 83.5763C210.941 83.5586 210.649 83.541 210.357 83.5233C210.292 84.5311 210.172 85.5388 210.171 86.5467C210.158 98.8579 210.146 111.169 210.174 123.48C210.181 126.773 208.033 128.754 206.231 131.139C201.911 136.858 196.008 133.799 190.923 133.885C188.886 133.919 185.776 130.629 184.95 128.225C183.654 124.45 183.541 120.145 183.516 116.061C183.392 95.6129 183.462 75.1633 183.456 54.7141C183.456 51.3085 185.07 48.473 186.124 45.3968C187.423 41.6062 190.382 40.1165 192.617 37.7536C194.168 36.1141 196.298 34.4365 199.108 34.6113C201.891 34.7844 204.707 34.8295 207.483 34.6088C212.185 34.235 215.45 36.5161 218.79 39.5347C223.17 43.4932 224.378 48.584 225.965 53.8876C226.579 55.9364 227.114 58.3039 228.188 60.3238C228.321 60.573 228.654 60.7363 228.731 60.9897C229.806 64.5685 230.345 68.4278 232.05 71.6642C233.718 74.8296 233.833 78.4443 235.297 81.3043C236.876 84.3896 237.175 87.5471 238.222 90.6052C238.651 91.8555 240.18 92.7221 241.369 93.9252C242.012 90.6821 242.414 87.9474 243.124 85.2968C243.687 83.1969 244.661 81.2121 245.393 79.1545C246.309 76.5789 247.219 73.9981 248.015 71.3837C248.29 70.4823 249.606 67.8303 250.783 66.4832C250.969 66.2705 251.101 65.9376 251.114 65.6537C251.275 62.1078 252.156 58.908 254.087 55.7883C255.234 53.9353 254.539 50.9609 255.607 49.012C258.221 44.2431 259.828 39.0479 265.739 36.2292C271.666 33.4025 277.31 35.4992 283.017 34.8045C284.282 34.6505 285.903 36.1102 287.108 37.1298C288.9 38.6463 290.567 40.3468 292.085 42.1426C292.768 42.9501 293.025 44.1564 293.369 45.2169C297.511 57.9919 294.586 71.12 295.121 84.0713C295.664 97.1944 295.338 110.359 295.167 123.503C295.129 126.46 293.24 128.812 291.31 131.137C286.91 136.442 281.124 133.484 275.97 134.122C275.049 134.236 273.771 133.344 273.016 132.564C269.669 129.107 268.288 125.084 268.424 120.054C268.767 107.441 268.538 94.8126 268.538 81.854C267.889 82.0734 267.042 82.129 266.946 82.4286C266.155 84.9035 265.941 87.6783 264.691 89.8601C263.375 92.1557 264.721 95.2188 262 97.1246C260.96 97.8523 260.939 100.102 260.52 101.677C259.849 104.2 259.478 106.835 258.534 109.246C257.301 112.394 257.022 115.956 254.671 118.651C254.38 118.985 254.417 119.593 254.252 120.057C253.24 122.909 252.729 126.12 251.064 128.515C248.795 131.778 246.199 135.255 241.149 134.282C239.152 133.898 237.022 134.223 234.953 134.218C230.59 134.209 229.909 132.481 227.279 128.999C225.003 125.986 225.594 122.076 222.841 119.471C221.894 118.576 221.944 116.609 221.54 115.132C220.851 112.614 220.285 110.053 219.435 107.591C218.835 105.854 217.752 104.292 217.065 102.578C216.315 100.709 215.704 98.7759 215.157 96.8351C214.453 94.3372 213.971 91.7719 213.188 89.302C212.887 88.3539 212.019 87.5886 211.407 86.4693Z" fill="white"/>
<path d="M29.4491 47.815C29.5717 41.2937 36.3877 36.5651 41.8087 39.1623C42.935 39.702 43.7488 41.2907 44.3079 42.5727C45.7334 45.8413 46.7711 49.2896 48.3188 52.4915C48.8103 53.5084 50.562 53.8273 51.4866 54.7272C53.1265 56.3234 53.6625 54.272 54.6751 53.902C58.8645 52.3715 60.6923 49.3955 60.6392 44.8303C60.6241 43.5388 62.0878 41.963 63.2543 40.9751C66.57 38.1672 70.8634 38.2421 74.463 40.9268C74.8639 41.2258 75.4344 41.8666 75.3438 42.1746C74.3917 45.4101 76.5502 47.8969 77.3887 50.6567C77.7241 51.7605 79.1598 52.5573 80.1651 53.4093C80.8089 53.955 81.5544 54.3993 82.3059 54.7876C82.8039 55.045 83.8183 55.3582 83.8791 55.2466C85.2653 52.6997 88.8039 53.0221 90.1214 49.5824C91.0181 47.2414 91.2269 45.1087 91.5974 42.8248C91.7104 42.1276 92.4027 41.5376 92.7804 40.8702C94.3709 38.0592 97.0717 39.3745 99.3413 39.006C102.117 38.5555 103.391 40.3235 104.665 42.2682C105.188 43.0672 106.431 43.833 106.361 44.5091C105.852 49.3814 108.222 52.0967 112.483 53.6605C113.372 53.9867 114.786 55.1367 114.896 55.0054C116.729 52.809 121.226 52.9172 120.692 48.7608C120.179 44.7657 122.576 42.044 124.748 39.5C125.579 38.5254 128.246 39.1652 130.073 39.0273C133.149 38.7953 134.901 39.9792 135.754 43.1916C136.586 46.3295 137.997 49.3535 139.497 52.2465C140.025 53.2637 141.803 53.5485 142.6 54.5123C144.091 56.3138 144.722 54.2327 145.74 54.1158C148.651 53.7817 149.921 51.3324 151.154 49.4724C152.045 48.1288 151.919 45.3368 151.126 43.7647C148.896 39.3393 145.995 35.2633 143.55 30.9392C142.524 29.1258 142.488 26.5042 141.119 25.1758C137.92 22.0722 140.235 18.2922 139.009 14.6097C138.11 14.6097 137.015 14.6097 135.92 14.6097C116.774 14.6097 97.6272 14.6118 78.4808 14.608C73.9619 14.6071 70.399 8.73125 72.5722 4.70617C74.1309 1.81928 76.0921 0.0430342 79.9754 0.0907828C100.257 0.34017 120.544 0.213219 140.829 0.201476C144.584 0.199301 147.497 2.23565 149.804 4.73413C152.461 7.61189 154.231 11.1487 153.706 15.4293C153.595 16.331 153.936 17.5323 154.506 18.2323C156.657 20.8707 158.363 23.5919 159.442 26.957C160.22 29.3819 162.559 31.2984 164.208 33.4366C164.379 33.6577 164.691 33.8106 164.773 34.0518C165.949 37.5242 167.372 40.9273 166.733 44.7748C166.48 46.2975 166.582 47.9082 166.713 49.4623C167.042 53.3377 165.164 56.2348 163.435 59.5162C162.255 61.755 161.035 63.6507 159.242 65.2483C157.975 66.3773 156.648 67.7261 155.113 68.1898C153.086 68.8026 153.678 70.146 153.672 71.3223C153.632 80.0886 153.436 88.8631 153.753 97.618C153.885 101.268 151.82 103.386 149.413 104.483C146.905 105.627 143.65 105.292 141.323 103.079C140.066 101.884 139.235 100.498 139.285 98.3972C139.485 89.9486 139.31 81.4917 139.399 73.0393C139.429 70.2 138.141 69.0563 135.519 68.3649C133.575 67.8524 131.885 66.3913 130.046 65.4218C129.555 65.1626 128.839 64.9119 128.388 65.0852C127.442 65.4488 126.619 66.1274 125.716 66.6214C123.747 67.6982 121.783 68.7868 119.769 69.7716C119.07 70.1129 118.24 70.2348 117.455 70.3326C110.578 71.1899 104.557 68.978 99.0123 65.0631C98.6981 64.8413 98.2765 64.7742 97.8619 64.619C96.1719 66.8847 94.0682 67.8325 91.386 68.7736C88.0677 69.9381 84.9479 70.3291 81.6099 70.3407C78.0933 70.3528 72.4766 67.8646 69.726 65.15C69.4774 64.9046 68.8812 64.6555 68.6778 64.7831C67.1465 65.7436 65.6696 66.793 64.1855 67.8289C63.958 67.9877 63.8154 68.3197 63.5757 68.4039C58.7324 70.1043 53.7515 70.7625 48.6363 70.3355C48.0457 70.2862 43.0287 67.4005 42.3638 67.0189C40.8956 66.1763 39.3973 65.2683 37.7926 64.8523C37.2474 64.7109 36.4255 66.1213 35.5924 66.5521C33.4444 67.6629 31.2916 68.8583 29.0031 69.5698C27.1037 70.1602 25.0141 70.2183 22.999 70.3237C15.7051 70.7056 9.90289 67.2214 4.83158 62.5169C3.36074 61.1525 3.31284 58.3443 2.05645 56.6069C-1.6269 51.5135 1.09044 45.8422 0.297888 40.5107C0.0613708 38.9197 2.30098 34.8346 3.50028 33.2863C4.46945 32.035 5.07261 30.49 5.80193 29.0565C7.08784 26.5292 8.33203 23.9801 9.62949 21.4589C9.85388 21.0229 10.2011 20.6106 10.5837 20.3047C12.6431 18.658 13.5119 16.5639 13.3207 13.9021C12.9586 8.85947 16.2084 5.41522 19.3567 2.43002C21.0225 0.850622 24.1911 0.356924 26.7014 0.301431C36.9423 0.0750408 47.1919 0.277271 57.4365 0.160058C60.1716 0.128763 61.4264 1.54506 62.4083 3.75749C62.8525 4.75837 63.8518 5.54814 64.1508 6.56746C64.9279 9.2164 63.1342 10.9005 61.6292 12.7311C59.989 14.7261 57.9054 14.652 55.6638 14.6365C46.4588 14.5725 37.2531 14.6097 27.7643 14.6097C27.7007 15.5914 27.5482 16.4885 27.6014 17.3731C27.8486 21.4833 26.8664 24.9041 24.0931 28.2794C21.6834 31.2123 20.6029 35.2434 18.8479 38.7447C18.4283 39.5818 17.6033 40.2015 17.0649 40.9906C13.322 46.4766 14.5809 50.58 20.9566 53.5222C21.9146 53.9643 23.4339 55.1725 23.6369 54.9667C25.7403 52.8339 30.1861 52.6167 29.4491 47.815Z" fill="white"/>
<path d="M153.651 126.079C153.651 130.043 153.201 133.769 153.777 137.325C154.363 140.941 153.119 144.348 151.487 146.625C149.242 149.756 146.133 153.024 141.401 153.021C103.023 152.994 64.6446 152.964 26.2666 153.067C22.2268 153.078 19.5245 151.028 17.0866 148.411C14.1666 145.277 13.1699 141.481 13.2215 137.065C13.4212 119.96 13.2999 102.851 13.305 85.7434C13.306 82.5332 14.8258 81.0066 17.9964 80.9911C19.3412 80.9845 20.686 80.9897 22.0308 80.9901C26.4281 80.9913 27.5852 82.1247 27.5854 86.4398C27.5863 102.4 27.5857 118.36 27.5857 134.32C27.5857 135.441 27.5857 136.561 27.5857 137.827C30.7152 137.827 33.5764 137.827 36.9008 137.827C36.9008 136.779 36.9008 135.684 36.9008 134.588C36.901 119.567 36.8982 104.546 36.9038 89.5243C36.9049 86.318 38.4344 84.7529 41.5735 84.7509C53.0559 84.7438 64.5384 84.7403 76.0209 84.7533C79.152 84.7569 80.9855 86.6181 80.9878 89.7902C80.9981 104.603 80.9924 119.416 80.9924 134.228C80.9925 135.357 80.9924 136.485 80.9924 137.795C100.482 137.795 119.762 137.795 139.368 137.795C139.368 130.466 139.365 123.198 139.37 115.93C139.372 112.268 141.191 110.471 144.919 110.424C151.058 110.346 153.651 112.951 153.651 119.195C153.651 121.386 153.651 123.576 153.651 126.079ZM66.0882 123.887C66.0882 115.898 66.0882 107.91 66.0882 100.018C61.0715 100.018 56.4797 100.018 51.9608 100.018C51.9608 112.745 51.9608 125.231 51.9608 137.791C56.7084 137.791 61.2977 137.791 66.0882 137.791C66.0882 133.243 66.0882 128.878 66.0882 123.887Z" fill="white"/>
<path d="M578.131 130.925C575.697 128.863 572.912 127.29 571.425 124.897C569.153 121.239 565.386 118.321 565.309 113.367C565.276 111.264 565.173 108.671 564.005 107.167C560.393 102.515 563.178 97.3848 562.35 92.5785C562.236 91.9185 563.127 91.0895 563.533 90.3286C563.754 89.9167 564.046 89.5012 564.115 89.057C564.568 86.1686 564.676 83.1856 565.482 80.4061C566.099 78.276 567.412 76.281 568.716 74.4424C570.104 72.4857 572.133 70.9602 573.358 68.9257C574.847 66.4537 577.553 66.2166 579.558 64.7471C581.111 63.6084 582.865 62.6699 584.654 61.9591C586.52 61.2177 588.523 60.4626 590.487 60.4003C596.702 60.2033 602.972 59.8695 609.135 60.4752C613.88 60.9415 618.713 62.3891 622.798 64.9844C625.555 66.7367 627.833 69.4341 629.917 72.0407C632.183 74.8747 634.248 77.954 635.875 81.1944C636.892 83.2178 637.273 85.7254 637.352 88.0362C637.552 93.8693 637.534 99.7172 637.372 105.553C637.284 108.726 636.678 111.795 634.597 114.496C633.675 115.694 633.74 117.614 633.097 119.092C631.282 123.264 627.717 126.083 624.853 129.433C624.264 130.122 622.857 130.041 621.901 130.478C617.984 132.267 614.42 135.124 609.666 134.271C609.052 134.16 608.3 134.709 607.639 135.011C606.927 135.337 606.256 136.021 605.549 136.048C602.45 136.164 599.34 136.213 596.246 136.05C594.665 135.967 592.534 137.134 591.662 134.468C591.561 134.16 590.13 134.338 589.328 134.211C586.726 133.8 584.025 133.651 581.584 132.774C580.571 132.411 580.045 130.588 578.131 130.925ZM597.21 115.211C600.482 116.171 604.383 115.641 606.073 113.51C608.629 110.286 611.275 106.425 610.72 101.643C610.211 97.2579 610.969 92.9148 609.762 88.3821C608.721 84.4705 605.971 82.6627 603.636 80.5707C601.498 78.656 593.212 81.3956 592.281 83.9834C590.859 87.9408 589.752 92.0733 589.077 96.225C588.569 99.3517 590.046 102.481 590.494 105.495C591.192 110.198 594.321 112.055 597.21 115.211Z" fill="white"/>
<path d="M642.386 94.1408C642.386 88.8186 642.631 83.7936 642.315 78.8049C642.021 74.1719 643.235 70.0973 645.351 66.1247C645.702 65.4647 645.548 64.5307 645.572 64.2785C654.567 57.7395 662.095 59.1495 667.698 67.5295C670.812 66.0251 673.782 65.1351 676.09 63.3657C681.519 59.2016 687.686 60.5927 693.65 60.3436C696.309 60.2326 699.426 62.4647 702.422 63.0389C705.853 63.6965 706.874 66.7048 709.44 67.9842C710.188 68.3572 710.392 69.9344 710.749 70.9927C711.602 73.5246 712.713 75.893 713.397 78.5754C717.125 93.2024 713.989 107.975 714.996 122.624C715.207 125.699 713.165 127.895 711.488 130.387C707.081 136.938 700.744 133.243 695.304 134.128C694.859 134.2 694.187 133.459 693.765 132.969C691.256 130.055 687.889 128.104 688.169 123.032C688.742 112.628 688.343 102.17 688.34 91.734C688.339 87.9054 684.967 83.4338 681.259 82.1971C680.833 82.0551 680.614 81.3665 680.215 81.0325C679.879 80.751 679.214 80.3365 679.05 80.46C677.252 81.818 675.616 83.4092 673.754 84.6616C671.331 86.2905 671.559 88.8019 670.789 91.1794C667.052 102.711 670.115 114.457 669.11 126.04C668.805 129.548 664.384 134.116 660.872 134.205C658.08 134.275 655.283 134.283 652.491 134.204C647.971 134.076 644.425 130.378 644.198 125.855C644.158 125.062 643.383 124.33 643.068 123.522C642.76 122.735 642.42 121.887 642.415 121.065C642.369 112.195 642.386 103.324 642.386 94.1408Z" fill="white"/>
<path d="M325.766 163.026C322.695 163.78 321.449 161.545 319.801 160.081C316.46 157.113 314.643 153.14 315.982 149.052C316.741 146.737 315.657 143.617 318.61 141.771C319.678 141.104 319.554 138.578 320.095 136.94C320.473 135.797 321.058 134.722 321.423 133.902C320.97 132.679 320.424 131.507 320.104 130.275C319.572 128.221 319.031 126.369 317.489 124.623C316.288 123.261 316.144 120.855 315.781 118.866C315.509 117.378 315.123 116.271 314.234 114.868C312.349 111.891 311.893 108.009 310.739 104.537C310.266 103.115 309.389 101.832 308.89 100.416C307.387 96.1503 306.489 91.5712 304.374 87.6535C302.687 84.5285 302.174 81.3329 301.198 78.1265C300.764 76.7018 299.114 75.4609 299.614 73.5968C300.235 71.2797 301.007 69.001 301.788 66.7317C302.12 65.7658 302.641 64.8656 302.951 64.2027C309.425 59.1294 316.066 58.7874 322.986 64.3379C323.664 65.6722 324.69 67.7039 325.732 69.7269C325.814 69.887 326.099 69.9626 326.142 70.1188C327.24 74.1092 328.249 78.1261 329.428 82.0915C330.074 84.2654 330.991 86.3586 331.821 88.4744C331.916 88.7166 332.368 88.8343 332.429 89.0695C333.186 91.9667 333.9 94.8751 334.653 97.8895C336.598 97.1539 337.354 96.0759 337.605 93.8914C337.939 90.9793 339.232 88.18 340.105 85.3296C340.889 82.771 341.223 79.9399 342.561 77.7229C343.938 75.4394 342.406 72.2469 345.288 70.4721C345.988 70.0408 345.349 67.7893 345.943 66.7252C348.459 62.218 354.803 59.4249 359.887 60.3306C364.736 61.1942 368.968 66.6239 369.187 71.7182C369.435 77.4734 367.337 82.4029 364.578 87.1885C364.429 87.4482 364.277 87.7206 364.201 88.0074C363.144 92.0073 362.171 96.0317 361.011 100C360.674 101.153 359.63 102.083 359.219 103.228C357.678 107.519 356.753 112.122 354.643 116.092C353.041 119.105 353.113 122.776 351.47 125.148C349.38 128.165 349.785 132.023 347.078 134.708C345.91 135.865 346.153 138.382 345.532 140.203C343.932 144.9 342.549 149.72 340.415 154.168C338.931 157.26 336.392 159.852 334.21 162.574C333.881 162.985 332.931 162.99 332.265 163.007C330.198 163.059 328.129 163.026 325.766 163.026Z" fill="white"/>
<path d="M557.308 81.6163C557.308 95.1772 557.374 108.426 557.25 121.672C557.226 124.193 557.297 127.599 555.826 129.014C553.661 131.096 552.156 134.906 547.934 134.272C545.91 133.968 543.804 134.218 541.735 134.22C537.469 134.225 533.504 133.733 532.405 128.492C529.121 127.16 530.687 124.286 530.678 122.166C530.566 95.2534 530.677 68.3401 530.533 41.4282C530.509 36.9386 536.43 30.9497 540.531 31.4703C542.669 31.7417 544.907 31.7739 547.033 31.4597C550.449 30.9553 552.315 32.9797 554.163 35.2423C556.787 38.4549 557.335 42.2493 557.322 46.2541C557.282 57.937 557.308 69.6202 557.308 81.6163Z" fill="white"/>
<path d="M130.052 107.918C130.052 112.609 129.989 116.989 130.078 121.365C130.123 123.574 128.856 124.434 127.196 125.538C123.986 127.671 120.531 127.307 117.07 127.324C111.074 127.353 105.078 127.316 99.0826 127.338C95.8455 127.35 93.1316 126.107 90.9111 123.825C90.3107 123.208 89.7445 122.222 89.7385 121.402C89.6611 110.665 89.6711 99.9279 89.7003 89.191C89.7066 86.8822 91.7492 84.7698 94.0056 84.7628C104.757 84.7297 115.509 84.6641 126.258 84.8199C128.422 84.8512 130.027 86.361 130.04 88.8411C130.074 95.0955 130.052 101.35 130.052 107.918ZM115.148 102.079C114.649 101.313 114.195 99.9264 113.641 99.8847C110.712 99.6636 107.758 99.7809 104.762 99.7809C104.762 103.479 104.762 106.837 104.762 110.249C108.266 110.249 111.596 110.249 115.149 110.249C115.149 107.614 115.149 105.147 115.148 102.079Z" fill="white"/>
<path d="M650.34 141.108C652.991 141.043 655.595 140.962 656.69 143.447C657.37 144.988 657.014 146.994 657.178 149.701C657.302 150.96 658.198 153.389 657.554 155.288C656.829 157.43 654.41 158.188 651.884 158.063C648.202 157.881 644.504 158.016 640.671 158.016C640.671 152.359 640.671 146.977 640.671 141.108C643.743 141.108 646.895 141.108 650.34 141.108ZM652.576 154.181C652.702 153.243 652.828 152.306 652.965 151.289C650.305 151.289 648.003 151.289 645.659 151.289C645.659 152.527 645.659 153.597 645.659 155.131C647.925 154.839 649.982 154.573 652.576 154.181ZM652.214 147.07C651.791 146.196 651.489 144.68 650.92 144.569C649.2 144.236 647.376 144.449 645.428 144.449C645.533 145.532 645.617 146.395 645.707 147.326C647.86 147.326 649.789 147.326 652.214 147.07Z" fill="white"/>
<path d="M693.309 152.366C693.918 149.96 694.498 147.811 695.132 145.678C696.031 142.653 698.062 141.114 701.207 141.109C704.207 141.104 707.207 141.108 710.452 141.108C710.452 146.645 710.452 152.111 710.452 157.797C709.078 157.797 707.595 157.797 705.871 157.797C705.786 156.761 705.697 155.668 705.595 154.421C703.076 154.421 700.625 154.421 697.96 154.421C697.617 155.411 697.228 156.535 696.772 157.854C695.427 157.854 693.914 157.854 691.855 157.854C692.366 156.013 692.835 154.322 693.309 152.366ZM705.651 150.026C705.651 148.391 705.651 146.755 705.651 145.147C700.634 144.524 700.302 144.794 699.061 150.428C701.136 150.428 703.183 150.428 705.651 150.026Z" fill="white"/>
<path d="M673.883 158.015C669.357 158.016 665.124 158.016 660.644 158.016C660.644 152.49 660.644 147.033 660.644 141.34C665.496 141.34 670.494 141.34 675.782 141.34C675.828 142.323 675.879 143.403 675.948 144.866C672.708 144.866 669.638 144.77 666.582 144.936C665.852 144.975 665.169 145.886 664.465 146.396C664.626 146.721 664.788 147.046 664.95 147.371C667.406 147.371 669.88 147.198 672.307 147.465C673.157 147.559 673.889 148.737 674.676 149.419C673.945 150.192 673.305 151.484 672.465 151.633C670.561 151.972 668.544 151.612 666.604 151.823C665.846 151.906 665.171 152.762 664.459 153.266C664.618 153.598 664.777 153.93 664.936 154.262C667.906 154.262 670.884 154.152 673.843 154.34C674.565 154.386 675.569 155.28 675.837 156.01C676.283 157.226 675.834 158.275 673.883 158.015Z" fill="white"/>
<path d="M682.752 150.521C682.752 148.563 682.752 146.913 682.752 145.307C680.647 144.883 678.681 144.622 676.837 143.996C676.48 143.875 676.602 142.322 676.484 141.257C682.36 141.257 687.996 141.257 693.622 141.257C694.069 144.702 694.069 144.702 687.901 144.96C687.901 149.137 687.901 153.345 687.901 157.783C686.129 157.783 684.646 157.783 682.752 157.783C682.752 155.535 682.752 153.181 682.752 150.521Z" fill="white"/>
</svg>
