<svg width="80" height="80" viewBox="0 0 80 80" fill="none" xmlns="http://www.w3.org/2000/svg">
<path d="M26.4291 10.7062H25.7148C26.1077 10.7062 26.4291 10.3847 26.4291 9.99187V10.7062H53.572V9.99187C53.572 10.3847 53.8934 10.7062 54.2863 10.7062H53.572V17.1347H60.0006V9.99187C60.0006 6.84009 57.4381 4.27759 54.2863 4.27759H25.7148C22.5631 4.27759 20.0006 6.84009 20.0006 9.99187V17.1347H26.4291V10.7062ZM71.4291 17.1347H8.57199C6.99163 17.1347 5.71484 18.4115 5.71484 19.9919V22.849C5.71484 23.2419 6.03627 23.5633 6.42913 23.5633H11.822L14.0273 70.2597C14.1702 73.3044 16.6881 75.7062 19.7327 75.7062H60.2684C63.322 75.7062 65.8309 73.3133 65.9738 70.2597L68.1791 23.5633H73.572C73.9649 23.5633 74.2863 23.2419 74.2863 22.849V19.9919C74.2863 18.4115 73.0095 17.1347 71.4291 17.1347ZM59.5809 69.2776H20.4202L18.2595 23.5633H61.7416L59.5809 69.2776Z" fill="black" fill-opacity="0.85"/>
</svg>
