<svg width="395" height="398" viewBox="0 0 395 398" fill="none" xmlns="http://www.w3.org/2000/svg">
<path d="M394.638 199.073C394.638 308.816 306.404 397.79 197.576 397.79C88.7482 397.79 0.514404 308.816 0.514404 199.073C0.514404 89.3313 88.7482 0.356454 197.576 0.356454C306.404 0.324356 394.638 89.2992 394.638 199.073Z" fill="#FE8C81"/>
<path opacity="0.6" d="M383.083 199.073C383.083 302.395 300.006 386.138 197.576 386.138C95.1456 386.138 12.0684 302.395 12.0684 199.073C12.0684 95.7503 95.1456 12.0073 197.576 12.0073C300.006 12.0073 383.083 95.7503 383.083 199.073Z" fill="#F4BFC2"/>
<path d="M366.023 199.073C366.023 292.894 290.617 368.934 197.577 368.934C104.537 368.934 29.1306 292.894 29.1306 199.073C29.1306 105.251 104.537 29.2114 197.577 29.2114C290.585 29.2114 366.023 105.251 366.023 199.073Z" fill="url(#paint0_radial_17_7774)"/>
<path d="M248.633 331.477C248.697 331.059 248.76 330.642 248.76 330.193C248.76 328.652 248.378 327.24 247.678 325.988L206.522 229.374C205.216 226.292 202.256 224.302 198.978 224.302C195.699 224.302 192.739 226.292 191.434 229.374L149.927 326.822C149.29 328.299 149.163 329.904 149.386 331.477H149.354C149.354 331.477 148.049 346.883 198.946 348.232H199.009C249.97 346.883 248.665 331.477 248.633 331.477Z" fill="#FE8C81"/>
<path d="M130.191 329.166C130.541 328.941 130.891 328.717 131.209 328.428C132.355 327.433 133.151 326.181 133.597 324.865L178.159 229.824C179.591 226.806 179.114 223.212 176.981 220.676C174.849 218.14 171.443 217.145 168.324 218.172L69.1084 249.821C67.6124 250.302 66.3073 251.265 65.3524 252.453L65.3206 252.42C65.3206 252.42 53.0659 261.472 85.3418 301.755L85.4056 301.787H85.3737C119.655 340.272 130.191 329.166 130.191 329.166Z" fill="#FE8C81"/>
<path d="M56.7912 245.328C57.205 245.424 57.587 245.52 58.0326 245.584C59.5286 245.713 60.9292 245.424 62.2024 244.846L159.89 211.272C162.977 210.213 165.174 207.356 165.46 204.018C165.747 200.68 164.06 197.502 161.195 195.897L69.8417 145.215C68.4411 144.444 66.9132 144.155 65.3536 144.284V144.252C65.3536 144.252 50.4888 141.588 44.7593 193.329V193.393C41.6718 245.36 56.7912 245.36 56.7912 245.328Z" fill="#FE8C81"/>
<path d="M66.7538 133.146C66.9766 133.499 67.1995 133.852 67.5178 134.205C68.5363 135.328 69.7777 136.098 71.0827 136.548L165.237 179.366C168.229 180.714 171.73 180.137 174.118 177.89C176.537 175.611 177.428 172.112 176.346 168.967L142.542 68.4365C142.033 66.8958 141.078 65.6119 139.868 64.649L139.9 64.6169C139.9 64.6169 130.701 52.3555 92.2499 86.5075L92.218 86.5396C55.5813 122.714 66.7219 133.146 66.7538 133.146Z" fill="#FE8C81"/>
<path d="M265.343 329.167C264.993 328.942 264.643 328.717 264.324 328.428C263.179 327.433 262.383 326.182 261.937 324.866L217.375 229.824C215.974 226.807 216.42 223.212 218.552 220.676C220.685 218.141 224.091 217.146 227.21 218.173L326.426 249.821C327.922 250.303 329.227 251.265 330.213 252.453L330.245 252.421C330.245 252.421 342.5 261.472 310.224 301.755L310.16 301.787C275.847 340.272 265.343 329.167 265.343 329.167Z" fill="#FE8C81"/>
<path d="M338.744 245.328C338.331 245.424 337.949 245.52 337.503 245.585C336.007 245.713 334.575 245.424 333.333 244.846L235.646 211.272C232.558 210.213 230.362 207.356 230.076 204.018C229.789 200.68 231.476 197.502 234.341 195.897L325.694 145.215C327.095 144.445 328.622 144.156 330.15 144.284V144.252C330.15 144.252 345.047 141.588 350.776 193.329V193.394C353.864 245.36 338.744 245.36 338.744 245.328Z" fill="#FE8C81"/>
<path d="M328.781 133.146C328.559 133.499 328.336 133.852 328.018 134.205C326.999 135.328 325.789 136.098 324.453 136.548L230.298 179.366C227.306 180.714 223.805 180.137 221.386 177.89C218.967 175.611 218.107 172.112 219.158 168.967L252.962 68.4365C253.471 66.8958 254.426 65.6119 255.635 64.649L255.604 64.6169C255.604 64.6169 264.802 52.3555 303.253 86.5075L303.285 86.5396C339.922 122.714 328.781 133.146 328.781 133.146Z" fill="#FE8C81"/>
<path d="M149.449 56.9771C149.386 57.3944 149.322 57.8116 149.322 58.261C149.322 59.7696 149.704 61.2139 150.404 62.4336L191.561 159.048C192.866 162.097 195.826 164.119 199.105 164.119C202.383 164.119 205.343 162.129 206.648 159.048L248.155 61.5991C248.792 60.1226 248.919 58.5177 248.696 56.945H248.728C248.728 56.945 250.033 41.538 199.137 40.1899H199.073C148.144 41.5701 149.449 56.9771 149.449 56.9771Z" fill="#FE8C81"/>
<path d="M248.633 331.477C248.697 331.059 248.76 330.642 248.76 330.193C248.76 328.652 248.378 327.24 247.678 325.988L206.522 229.374C205.216 226.292 202.256 224.302 198.978 224.302C195.699 224.302 192.739 226.292 191.434 229.374L149.927 326.822C149.29 328.299 149.163 329.904 149.386 331.477H149.354C149.354 331.477 148.049 346.883 198.946 348.232H199.009C249.97 346.883 248.665 331.477 248.633 331.477Z" stroke="#FE8C81" stroke-width="0.6061" stroke-miterlimit="10"/>
<path d="M130.191 329.166C130.541 328.941 130.891 328.717 131.209 328.428C132.355 327.433 133.151 326.181 133.597 324.865L178.159 229.824C179.591 226.806 179.114 223.212 176.981 220.676C174.849 218.14 171.443 217.145 168.324 218.172L69.1084 249.821C67.6124 250.302 66.3073 251.265 65.3524 252.453L65.3206 252.42C65.3206 252.42 53.0659 261.472 85.3418 301.755L85.4056 301.787H85.3737C119.655 340.272 130.191 329.166 130.191 329.166Z" stroke="#FE8C81" stroke-width="0.6061" stroke-miterlimit="10"/>
<path d="M56.7912 245.328C57.205 245.424 57.587 245.52 58.0326 245.584C59.5286 245.713 60.9292 245.424 62.2024 244.846L159.89 211.272C162.977 210.213 165.174 207.356 165.46 204.018C165.747 200.68 164.06 197.502 161.195 195.897L69.8417 145.215C68.4411 144.444 66.9133 144.155 65.3536 144.284V144.252C65.3536 144.252 50.4888 141.588 44.7593 193.329V193.393C41.6718 245.36 56.7912 245.36 56.7912 245.328Z" stroke="#FE8C81" stroke-width="0.6061" stroke-miterlimit="10"/>
<path d="M66.7538 133.146C66.9766 133.499 67.1995 133.852 67.5178 134.205C68.5363 135.328 69.7777 136.098 71.0827 136.548L165.237 179.366C168.229 180.714 171.73 180.137 174.118 177.89C176.537 175.611 177.428 172.112 176.346 168.967L142.542 68.4365C142.033 66.8958 141.078 65.6119 139.868 64.649L139.9 64.6169C139.9 64.6169 130.701 52.3555 92.2499 86.5075L92.218 86.5397C55.5813 122.714 66.7219 133.146 66.7538 133.146Z" stroke="#FE8C81" stroke-width="0.6061" stroke-miterlimit="10"/>
<path d="M265.343 329.167C264.993 328.942 264.643 328.717 264.324 328.428C263.179 327.433 262.383 326.182 261.937 324.866L217.375 229.824C215.974 226.807 216.42 223.212 218.552 220.676C220.685 218.141 224.091 217.146 227.21 218.173L326.426 249.821C327.922 250.303 329.227 251.265 330.213 252.453L330.245 252.421C330.245 252.421 342.5 261.472 310.224 301.755L310.16 301.787C275.847 340.272 265.343 329.167 265.343 329.167Z" stroke="#FE8C81" stroke-width="0.6061" stroke-miterlimit="10"/>
<path d="M338.744 245.328C338.331 245.424 337.949 245.52 337.503 245.585C336.007 245.713 334.575 245.424 333.333 244.846L235.646 211.272C232.558 210.213 230.362 207.356 230.076 204.018C229.789 200.68 231.476 197.502 234.341 195.897L325.694 145.215C327.095 144.445 328.622 144.156 330.15 144.284V144.252C330.15 144.252 345.047 141.588 350.776 193.329V193.394C353.864 245.36 338.744 245.36 338.744 245.328Z" stroke="#FE8C81" stroke-width="0.6061" stroke-miterlimit="10"/>
<path d="M328.781 133.146C328.559 133.499 328.336 133.852 328.018 134.205C326.999 135.328 325.789 136.098 324.453 136.548L230.298 179.366C227.306 180.714 223.805 180.137 221.386 177.89C218.967 175.611 218.107 172.112 219.158 168.967L252.962 68.4365C253.471 66.8958 254.426 65.6119 255.635 64.649L255.604 64.6169C255.604 64.6169 264.802 52.3555 303.253 86.5075L303.285 86.5397C339.922 122.714 328.781 133.146 328.781 133.146Z" stroke="#FE8C81" stroke-width="0.6061" stroke-miterlimit="10"/>
<path d="M149.449 56.9771C149.386 57.3944 149.322 57.8116 149.322 58.261C149.322 59.7696 149.704 61.2139 150.404 62.4336L191.561 159.048C192.866 162.097 195.826 164.119 199.105 164.119C202.383 164.119 205.343 162.129 206.648 159.048L248.155 61.5991C248.792 60.1226 248.919 58.5177 248.696 56.945H248.728C248.728 56.945 250.033 41.538 199.137 40.1899H199.073C148.144 41.5701 149.449 56.9771 149.449 56.9771Z" stroke="#FE8C81" stroke-width="0.6061" stroke-miterlimit="10"/>
<defs>
<radialGradient id="paint0_radial_17_7774" cx="0" cy="0" r="1" gradientUnits="userSpaceOnUse" gradientTransform="translate(197.57 199.062) scale(231.896 233.844)">
<stop stop-color="white"/>
<stop offset="0.2767" stop-color="#F1A9AA"/>
<stop offset="0.3843" stop-color="#F2BBBC"/>
<stop offset="0.6459" stop-color="#F5E3E5"/>
<stop offset="0.7815" stop-color="#F6F2F4"/>
<stop offset="0.8304" stop-color="#F6EFF1"/>
<stop offset="0.8613" stop-color="#F5E7E9"/>
<stop offset="0.8873" stop-color="#F4D8DA"/>
<stop offset="0.9104" stop-color="#F3C4C5"/>
<stop offset="0.9316" stop-color="#F1AAAB"/>
<stop offset="0.9322" stop-color="#F1A9AA"/>
<stop offset="0.9589" stop-color="#F0857D"/>
<stop offset="0.986" stop-color="#EF6454"/>
<stop offset="1" stop-color="#EF5845"/>
</radialGradient>
</defs>
</svg>
