<svg width="734" height="375" viewBox="0 0 734 375" fill="none" xmlns="http://www.w3.org/2000/svg">
<path d="M585.503 139.263C581.813 158.889 567.588 168.047 555.858 183.762C546.491 196.331 536.568 208.066 521.406 213.994C524.881 173.851 512.375 130.001 498.755 92.3514C495.411 83.1199 491.982 70.942 485.976 62.8914C477.017 50.9935 471.882 53.9814 473.711 68.4612C476.932 94.2916 484.223 119.772 489.548 145.182C493.706 165.007 500.069 190.182 491.671 209.689C479.732 237.401 436.567 245.629 413.783 263.397C433.164 234.296 429.437 183.145 426.788 149.508C425.622 134.687 423.727 119.575 425.202 105.018C426.321 94.0366 427.425 88.16 421.259 78.5109C402.82 84.5646 402.891 114.972 401.47 131.282C399.387 155.577 403.927 180.824 400.454 204.946C392.845 257.641 334.909 266.512 291.962 257.514C302.181 247.395 310.781 233.157 317.217 220.2C333.582 187.193 351.952 142.865 353.553 105.497C354.121 92.4373 356.156 76.6093 340.459 82.7108C324.883 88.7445 323.214 106.659 320.292 121.172C313.249 156.127 311.509 213.829 277.987 234.619C259.953 245.796 232.76 245.568 213.084 241.235C213.533 240.791 213.982 240.347 214.431 239.903C213.437 235.941 226.727 218.424 228.942 213.927C233.44 204.77 237.619 195.378 241.762 186.038C247.004 174.232 254.199 162.759 258.784 150.909C261.103 144.889 266.242 130.274 256.262 129.59C249.514 129.154 231.563 147.322 227.549 151.366C210.648 168.465 187.06 190.826 160.529 181.245C148.808 177.018 146.457 166.272 138.43 158.053C130.831 150.263 120.463 147.567 109.971 145.959C116.909 124.727 119.443 102.216 122.816 79.9652C132.537 16.1441 212.367 5.80233 263.217 21.6559C268.4 23.2592 274.153 29.2552 279.005 26.5543C283.892 23.8019 282.831 16.4691 281.039 12.6058C275.597 0.670237 243.452 -12.6602 231.166 -15.7407C214.222 -19.9882 195.978 -22.1343 178.54 -23.3964C163.02 -24.5602 146.229 -15.6448 132.163 -17.9462C153.762 -34.0915 167.536 -54.2702 192.092 -66.4442C208.946 -74.7899 221.147 -74.4314 239.486 -70.1736C264.248 -64.4693 292.328 -53.914 315.137 -42.5554C322.286 -39.0014 332.583 -26.9661 336.563 -41.2781C339.13 -50.5582 324.738 -67.9316 319.167 -73.9983C293.114 -102.448 248.317 -114.958 211.699 -116.979C204.336 -117.386 198.727 -117.762 191.505 -116.943C182.726 -115.916 178.318 -110.759 181.21 -120.477C184.456 -131.382 201.664 -143.08 210.48 -148.49C222.56 -155.931 234.454 -160.687 248.324 -161.078C261.749 -161.473 273.617 -153.73 286.865 -154.217C307.037 -136.786 328.674 -122.411 350.89 -107.789C363.488 -99.4696 372.773 -88.01 384.708 -79.0627C396.26 -92.9895 367.793 -125.398 360.174 -136.076C340.336 -163.853 311.105 -188.347 282.024 -205.441C304.35 -217.251 337.381 -228.72 361.455 -217.246C399.799 -198.936 410.209 -165.657 430.715 -131.599C445.933 -137.367 429.617 -173.498 426.217 -183.685C421.743 -197.122 415.329 -209.274 408.544 -221.695C403.682 -230.645 393.998 -240.829 393.231 -250.939C403.384 -252.453 411.579 -250.03 421.199 -246.69C439.8 -240.191 458.453 -236.906 477.804 -232.931C501.691 -228.008 526.481 -206.459 542.088 -187.86C584.515 -137.261 525.27 -101.442 498.467 -65.0401C507.939 -49.9917 541.197 -60.538 554.379 -63.3119C585.107 -69.7582 620.935 -68.0248 636.867 -37.3782C651.828 -8.54165 655.266 26.9757 648.587 58.5406C643.571 82.3858 636.135 120.11 619.443 137.759C609.493 118.14 600.369 99.6145 585.101 82.7671C579.785 76.8755 555.518 41.2733 547.852 46.7056C561.294 75.5376 591.853 105.622 585.503 139.263ZM449.428 115.228C468.496 127.929 472.739 68.2446 455.341 76.5781L454.024 74.4853C447.309 87.5666 447.945 99.9479 449.428 115.228ZM240.157 35.7899C231.614 39.8685 223.926 39.1029 213.119 41.4312C199.838 41.1724 175.336 39.3025 170.928 55.3521C184.888 56.6625 241.478 54.0275 240.157 35.7899ZM458.193 -120.991C461.754 -115.417 473.28 -112.226 480.199 -111.537C482.935 -121.995 472.877 -127.382 466.687 -133.482L468.004 -131.389C462.893 -130.581 450.141 -133.59 458.193 -120.991ZM500.133 -156.236C498.928 -155.844 498.202 -154.989 497.089 -154.49L499.164 -155.818C493.727 -160.559 451.329 -210.536 456.454 -170.491C458.705 -152.968 497.073 -125.436 511.271 -125.119C515.565 -137.952 509.496 -148.739 500.133 -156.236Z" fill="#EFEEE9"/>
<g opacity="0.7">
<path d="M435.056 -15.9473C435.056 -15.9473 446.429 -21.8777 463.48 -30.7855C472.016 -35.2771 481.963 -40.5311 492.621 -46.1543C497.909 -49.0384 503.377 -52.0553 508.931 -55.0887C514.484 -58.122 520.134 -61.2096 525.664 -64.5147C531.22 -67.7715 536.79 -71.0041 542.263 -74.1825C547.629 -77.5543 552.923 -80.8854 558.038 -84.0839C560.595 -85.6831 563.091 -87.2793 565.552 -88.8243C567.973 -90.4418 570.281 -92.0912 572.568 -93.6651C577.105 -96.8234 581.404 -99.7843 585.379 -102.531C589.408 -105.181 592.81 -108.049 595.926 -110.407C599.029 -112.79 601.725 -114.879 603.956 -116.612C608.407 -120.039 610.949 -122.01 610.949 -122.01C610.949 -122.01 608.276 -120.219 603.627 -117.093C601.302 -115.529 598.475 -113.619 595.227 -111.441C591.967 -109.287 588.417 -106.685 584.228 -104.325C580.092 -101.868 575.633 -99.1976 570.908 -96.3777C568.528 -94.9731 566.125 -93.493 563.635 -92.0583C561.08 -90.6825 558.501 -89.2932 555.85 -87.8633C550.572 -85.0169 545.125 -82.0755 539.569 -79.1041C533.919 -76.302 528.197 -73.4591 522.461 -70.6404C516.766 -67.7492 510.963 -65.0513 505.257 -62.4078C499.551 -59.7643 493.917 -57.1615 488.489 -54.643C477.515 -49.7616 467.266 -45.2252 458.494 -41.3303C440.885 -33.5996 429.146 -28.4458 429.146 -28.4458C423.558 -25.9319 417.974 -23.5798 412.394 -20.8802L395.674 -12.5715C390.005 -9.91739 384.824 -6.55449 379.42 -3.47872C374.12 -0.271423 368.639 2.72116 363.549 6.19144L348.122 16.436C342.98 19.8715 338.069 23.4946 333.056 27.048C323.044 34.1791 313.272 41.4599 303.479 48.8162C303.479 48.8162 300.898 50.7144 296.418 54.0314C291.873 57.2894 285.525 62.1972 277.685 67.6606C269.804 73.0515 260.795 79.7126 250.606 85.8966C240.478 92.3631 229.89 99.0253 218.25 103.901C195.109 114.019 170.043 120.432 152.067 127.386C143.11 131.004 135.654 133.967 130.743 136.734C125.735 139.27 122.875 140.722 122.875 140.722C122.875 140.722 125.818 139.477 130.976 137.269C136.027 134.868 143.665 132.405 152.761 129.437C157.355 128.15 162.363 126.756 167.652 125.299C172.995 123.939 178.619 122.515 184.425 121.021C190.228 119.465 196.285 118.083 202.396 116.226C205.44 115.336 208.522 114.456 211.615 113.539C214.668 112.549 217.726 111.397 220.8 110.331C227.004 108.359 232.908 105.445 238.786 102.769C241.776 101.496 244.508 99.9258 247.255 98.4416C250.002 96.9573 252.702 95.5002 255.377 94.0567C266.171 88.4518 275.686 82.3622 284.043 77.4325C292.36 72.4302 299.048 67.965 303.839 64.9806C308.603 61.9479 311.302 60.2054 311.302 60.2054L341.872 40.0029C346.944 36.67 351.96 33.1785 357.045 29.8698L372.253 19.9708C377.258 16.517 382.485 13.6359 387.6 10.4375C392.757 7.37348 397.775 3.94384 403.096 1.2319L418.85 -7.45236C424.163 -10.3501 429.679 -13.1086 435.056 -15.9473Z" fill="#485C8E"/>
</g>
<g opacity="0.7">
<path d="M287.646 111.81C287.646 111.81 288.385 108.056 289.489 102.444C290.134 99.6641 290.895 96.4064 291.695 92.9353C292.684 89.5174 293.685 85.8376 294.799 82.1897C296.128 78.6434 297.253 74.9578 298.68 71.7052C300.183 68.4739 301.431 65.3543 302.792 62.8387C305.626 57.8394 307.52 54.5145 307.52 54.5145C307.52 54.5145 305.398 57.7135 302.235 62.5173C300.711 64.9662 299.261 68.0084 297.496 71.1653C295.819 74.3678 294.469 77.9897 292.867 81.4994C291.467 85.0865 290.229 88.7402 288.994 92.1701C287.934 95.6288 286.962 98.8471 286.131 101.636C284.632 107.217 283.619 110.935 283.619 110.935C279.961 125.14 277.471 139.512 274.241 153.634C274.241 153.634 273.339 157.321 271.935 162.848C271.103 165.575 270.103 168.745 269.078 172.152C267.813 175.471 266.498 179.042 265.006 182.521C264.179 184.228 263.327 185.948 262.51 187.616C261.655 189.274 260.964 190.999 259.941 192.466C258.02 195.456 256.381 198.383 254.677 200.679C251.13 205.191 248.741 208.191 248.741 208.191C248.741 208.191 251.31 205.344 255.189 201.09C257.083 198.909 258.899 196.073 261.058 193.171C262.194 191.735 263.011 190.067 264.002 188.427C264.956 186.777 265.92 185.089 266.898 183.425C268.626 179.971 270.214 176.437 271.738 173.13C273.024 169.735 274.245 166.567 275.29 163.88C277.063 158.335 278.225 154.66 278.225 154.66C282.468 140.539 284.979 126.091 287.646 111.81Z" fill="#485C8E"/>
<path d="M223.111 80.3688C223.111 80.3688 225.998 80.329 230.34 80.2938C234.67 80.2344 240.464 80.0796 246.247 79.6768C249.139 79.4754 252.036 79.1123 254.727 78.8336C257.409 78.3689 259.897 77.9508 262.041 77.599C266.239 76.5022 269.034 75.7836 269.034 75.7836C269.034 75.7836 266.194 76.3056 261.958 77.1061C259.832 77.3203 257.313 77.5659 254.622 77.8446C251.923 77.9373 249.066 78.0872 246.204 78.1133C240.453 78.1169 234.715 77.8591 230.399 77.6569C226.094 77.417 223.223 77.257 223.223 77.257C212.272 76.6041 201.198 76.2428 190.141 77.3966C190.141 77.3966 187.257 77.7841 182.901 78.3666C180.743 78.6942 178.24 79.3118 175.56 79.8385C172.882 80.4272 170.111 81.418 167.319 82.1987C164.615 83.3105 161.897 84.3981 159.442 85.56C157.084 86.9535 154.84 88.1551 153.028 89.3358C149.59 92.0361 147.323 93.8227 147.323 93.8227C147.323 93.8227 149.708 92.192 153.293 89.7579C155.172 88.6982 157.472 87.6555 159.863 86.4345C162.35 85.4449 165.089 84.5674 167.79 83.6794C170.591 83.0848 173.346 82.2936 175.983 81.9181C178.634 81.5667 181.097 81.1623 183.236 80.9723C187.507 80.692 190.35 80.5178 190.35 80.5178C201.218 80.1062 212.131 80.4628 223.111 80.3688Z" fill="#485C8E"/>
<path d="M295.339 -12.9158C295.339 -12.9158 298.947 -10.3403 304.402 -6.48543C309.87 -2.60628 317.128 2.67939 325.028 7.06335C332.879 11.4745 341.456 14.6813 348.154 15.5775C351.483 15.9892 354.297 16.2142 356.243 16.0706C358.191 15.9891 359.314 15.9598 359.314 15.9598C359.314 15.9598 358.189 15.927 356.259 15.8708C354.321 15.9145 351.547 15.476 348.296 14.8615C341.788 13.5082 333.648 9.83256 326.26 5.00093C318.862 0.207135 312.03 -5.5097 306.856 -9.71408C301.656 -13.9669 298.185 -16.8103 298.185 -16.8103C284.919 -27.8651 268.869 -35.6006 252.326 -40.1649C252.326 -40.1649 251.238 -40.4732 249.348 -41.029C247.402 -41.4577 244.671 -42.0476 241.353 -42.7833C239.707 -43.127 237.911 -43.5131 236.016 -43.9069C234.089 -44.1872 232.087 -44.4887 229.999 -44.7737C227.911 -45.0587 225.772 -45.3786 223.572 -45.6955C221.384 -45.9881 219.144 -46.0916 216.911 -46.2949C212.459 -46.6774 208.007 -47.0598 203.805 -47.1059C199.613 -47.1899 195.71 -47.4373 192.365 -47.363C185.683 -47.3145 181.213 -47.2729 181.213 -47.2729C181.213 -47.2729 185.659 -47.0147 192.336 -46.6151C195.665 -46.4894 199.554 -45.9804 203.684 -45.6073C207.849 -45.2856 212.24 -44.614 216.606 -43.9288C218.796 -43.5741 220.993 -43.3194 223.138 -42.8754C225.258 -42.4178 227.365 -41.9843 229.386 -41.5344C231.393 -41.1087 233.363 -40.6936 235.234 -40.2862C237.049 -39.7517 238.775 -39.2626 240.375 -38.8297C243.54 -37.9124 246.18 -37.144 248.033 -36.5988C249.828 -35.9265 250.858 -35.5532 250.858 -35.5532C266.677 -30.0085 281.768 -22.7491 295.339 -12.9158Z" fill="#485C8E"/>
<path d="M381.832 87.3626C381.832 87.3626 381.598 85.968 381.161 83.5756C380.772 81.156 380.032 77.7582 379.129 73.7212C377.308 65.623 374.393 55.0894 372.46 44.3842C370.454 33.7197 369.954 22.7463 371.781 14.7211C372.772 10.7918 373.753 7.4726 374.91 5.38894C375.953 3.21132 376.542 1.98854 376.542 1.98854C376.542 1.98854 375.878 3.19007 374.696 5.28733C373.375 7.30422 372.169 10.5595 370.883 14.5279C368.488 22.5557 368.248 33.851 369.552 44.8479C370.807 55.872 373.028 66.6381 374.267 74.7146C374.887 78.7528 375.377 82.1005 375.589 84.4291C375.839 86.7684 375.984 88.1174 375.984 88.1174C376.314 93.1772 376.62 98.2507 376.066 103.142C375.948 105.561 375.429 108.111 374.957 110.635L373.605 118.202C371.569 128.253 369 138.254 365.817 148.062C365.817 148.062 365.428 149.362 364.724 151.635C364.056 153.919 362.709 157.032 361.318 160.869C359.877 164.67 358.242 169.153 356.007 173.752C353.824 178.386 351.758 183.462 349.059 188.195C344.107 197.951 338.333 207.249 333.863 214.157C329.19 220.927 326.073 225.419 326.073 225.419C326.073 225.419 329.495 221.136 334.627 214.68C339.555 208.086 345.986 199.117 351.63 189.638C354.679 185.025 357.096 180.069 359.604 175.507C362.177 171.004 364.146 166.554 365.861 162.789C367.563 159 369.157 155.875 369.961 153.609C370.826 151.341 371.314 150.048 371.314 150.048C375.25 140.23 378.253 129.983 380.372 119.567L381.711 111.69C382.153 109.056 382.622 106.471 382.673 103.644C383.136 98.0734 382.519 92.6665 381.832 87.3626Z" fill="#485C8E"/>
<path d="M356.006 -69.4047C356.006 -69.4047 359.262 -65.5784 364.133 -59.8632C369.042 -54.1374 375.641 -46.5013 382.835 -39.3919C390.04 -32.3204 398.017 -25.9707 404.628 -22.3186C406.23 -21.3128 407.828 -20.6555 409.218 -19.9756C409.912 -19.6356 410.556 -19.3305 411.149 -19.0604C411.776 -18.8417 412.342 -18.62 412.881 -18.4468C414.941 -17.6996 416.121 -17.2835 416.121 -17.2835C416.121 -17.2835 414.963 -17.7753 412.959 -18.6497C412.455 -18.8743 411.913 -19.1097 411.296 -19.3662C410.714 -19.6743 410.105 -20.0307 409.421 -20.4085C408.115 -21.1671 406.562 -21.9138 405.055 -23.0361C398.784 -27.103 391.383 -33.8415 384.768 -41.2776C378.14 -48.7379 372.145 -56.7142 367.644 -62.7336C363.153 -68.7907 360.173 -72.8046 360.173 -72.8046C357.324 -76.6381 354.389 -80.455 351.222 -84.2358L346.184 -89.5073L340.983 -94.5593C333.934 -101.178 326.375 -107.286 318.245 -112.595C318.245 -112.595 317.189 -113.304 315.319 -114.508C313.38 -115.61 310.708 -117.348 307.331 -119.102C300.68 -122.827 291.327 -126.97 281.588 -129.749C271.847 -132.591 261.757 -133.772 254.234 -133.92C250.469 -134.087 247.336 -133.912 245.153 -133.794C242.97 -133.676 241.736 -133.617 241.736 -133.617C241.736 -133.617 242.986 -133.59 245.188 -133.559C247.376 -133.552 250.506 -133.504 254.221 -133.086C261.68 -132.424 271.501 -130.582 280.798 -127.172C290.115 -123.837 298.883 -119.206 305.079 -115.16C308.217 -113.207 310.696 -111.36 312.49 -110.177C314.215 -108.891 315.199 -108.142 315.199 -108.142C322.688 -102.503 329.804 -96.3358 336.66 -89.8947L341.767 -85.0124L346.754 -80.0621C349.82 -76.6374 352.918 -73.04 356.006 -69.4047Z" fill="#485C8E"/>
<path d="M437.055 76.3322C437.055 76.3322 436.797 74.9503 436.346 72.5321C435.871 70.1275 435.178 66.7001 434.357 62.5818C432.727 54.3694 430.486 43.4477 428.773 32.4508C428.357 29.6948 427.941 26.9388 427.527 24.2449C427.224 21.5207 426.947 18.8451 426.686 16.2558C426.004 11.0727 426.028 6.19158 425.786 2.0329C425.633 -0.0760125 425.748 -1.98617 425.798 -3.6692C425.873 -5.36584 425.908 -6.84887 425.967 -8.05924C426.071 -10.5042 426.122 -11.9009 426.122 -11.9009C426.122 -11.9009 425.972 -10.512 425.706 -8.07169C425.586 -6.85835 425.428 -5.36923 425.23 -3.66665C425.032 -1.96406 424.793 -0.0479721 424.809 2.04263C424.756 6.24043 424.414 11.1742 424.753 16.4238C424.879 19.0568 424.96 21.7792 425.092 24.5364C425.323 27.3014 425.554 30.0663 425.774 32.8691C426.742 44.0637 428.261 55.1695 429.338 63.4708C429.889 67.6146 430.348 71.0782 430.651 73.516C430.941 75.9295 431.138 77.3144 431.138 77.3144C431.787 82.6112 432.461 87.8942 433.122 93.1531C433.909 98.4682 434.805 103.753 435.799 108.984C437.823 119.455 440.115 129.839 442.38 140.174C442.38 140.174 442.662 141.543 443.186 143.92C443.709 146.297 444.388 149.7 445.159 153.784C446.675 161.964 448.584 172.915 449.262 183.986C450.063 195.052 449.482 206.197 447.933 214.388C447.515 216.437 447.126 218.311 446.815 219.982C446.317 221.599 445.872 223.027 445.502 224.19C444.762 226.516 444.338 227.869 444.338 227.869C444.338 227.869 444.85 226.562 445.74 224.278C446.186 223.136 446.719 221.754 447.355 220.155C447.802 218.502 448.314 216.623 448.845 214.605C450.952 206.45 452.305 195.156 452.25 183.892C452.305 172.598 451.125 161.364 450.145 153.008C449.667 148.824 449.194 145.336 448.805 142.915C448.477 140.491 448.268 139.081 448.268 139.081C446.697 128.513 444.735 118.039 442.751 107.64L439.838 92.0702C438.982 86.8581 438.037 81.6005 437.055 76.3322Z" fill="#485C8E"/>
<path d="M506.438 34.3114C506.438 34.3114 505.683 33.1768 504.37 31.1474C503.021 29.1696 501.284 26.2016 498.826 22.907C496.393 19.5987 493.697 15.6431 490.563 11.5839C487.37 7.58983 484.109 3.18791 480.565 -0.92628C473.604 -9.32278 466.324 -17.3801 460.768 -23.3531C455.152 -29.2609 451.406 -33.1661 451.406 -33.1661C451.406 -33.1661 454.892 -28.9869 460.102 -22.7233C465.239 -16.4188 471.958 -7.88612 478.28 0.902294C481.538 5.24203 484.447 9.81036 487.35 13.9679C490.156 18.1798 492.574 22.261 494.738 25.6568C496.916 29.077 498.421 32.0812 499.634 34.1029C500.776 36.1654 501.458 37.3406 501.458 37.3406C504.015 41.7888 506.148 46.4442 508.546 50.9498C510.824 55.5235 512.86 60.2334 515.076 64.81C516.941 69.5531 519.049 74.222 520.865 78.9922L523.493 86.202C524.401 88.5872 525.284 90.986 525.986 93.4558C525.986 93.4558 526.375 94.7324 527.079 96.9778C527.697 99.2399 528.936 102.394 529.825 106.349C530.739 110.291 532.05 114.836 532.996 119.81C533.464 122.316 533.935 124.884 534.408 127.515C534.905 130.131 535.367 132.799 535.658 135.501C537.188 146.226 537.883 157.103 538.189 165.272C538.309 173.449 538.385 178.913 538.385 178.913C538.385 178.913 538.669 173.469 539.08 165.279C539.33 157.083 539.363 146.146 538.541 135.212C538.447 132.464 538.143 129.739 537.828 127.051C537.513 124.364 537.225 121.724 536.916 119.161C536.297 114.034 535.276 109.325 534.604 105.248C533.993 101.167 532.959 97.866 532.448 95.5115C531.876 93.1601 531.583 91.829 531.583 91.829C531.037 89.2397 530.261 86.7485 529.447 84.2468L527.066 76.7387C525.366 71.776 523.287 66.9313 521.342 62.0427C519.069 57.3068 516.869 52.5302 514.404 47.9032C511.742 43.3231 509.325 38.669 506.438 34.3114Z" fill="#485C8E"/>
<path d="M544.206 -14.901C544.206 -14.901 540.112 -16.3472 533.993 -18.3058C527.884 -20.3022 519.713 -22.8218 511.79 -25.8638C503.844 -28.8922 496.174 -32.6808 491.06 -36.5429C489.7 -37.3986 488.712 -38.4965 487.701 -39.2944C486.676 -40.1165 485.922 -40.9641 485.31 -41.6691C484.063 -43.0656 483.36 -43.8784 483.36 -43.8784C483.36 -43.8784 484.014 -43.0385 485.155 -41.5497C485.708 -40.7795 486.427 -39.8804 487.393 -38.9932C488.358 -38.106 489.3 -36.9188 490.591 -35.9601C495.487 -31.6892 503.034 -27.3219 510.857 -23.7148C518.67 -20.0699 526.704 -16.996 532.658 -14.5937C538.621 -12.2292 542.504 -10.5363 542.504 -10.5363C546.219 -8.9723 549.889 -7.31898 553.417 -5.52188C556.921 -3.71117 560.326 -1.62188 563.827 0.413054C570.636 4.59183 577.134 9.29616 583.305 14.4394C583.305 14.4394 584.102 15.1355 585.502 16.3503C586.913 17.5273 588.859 19.326 591.155 21.531C595.687 25.944 601.426 32.2534 606.363 39.1741C611.324 46.0812 615.435 53.627 618.004 59.5289C618.637 61.0172 619.203 62.3842 619.7 63.5679C620.124 64.7925 620.505 65.8821 620.84 66.7748C621.449 68.5631 621.814 69.5664 621.814 69.5664C621.814 69.5664 621.522 68.5223 621.023 66.7038C620.773 65.7946 620.478 64.6883 620.126 63.4229C619.689 62.1741 619.232 60.7768 618.696 59.234C616.527 53.1386 612.907 45.2206 608.297 37.8608C603.76 30.4602 598.356 23.6118 593.99 18.7551C591.796 16.3335 589.942 14.3562 588.549 13.0413C587.205 11.6993 586.429 10.9273 586.429 10.9273C574.399 -0.457265 559.941 -9.64576 544.206 -14.901Z" fill="#485C8E"/>
</g>
</svg>
