<svg width="313" height="291" viewBox="0 0 313 291" fill="none" xmlns="http://www.w3.org/2000/svg">
<path d="M141.621 150.826C146.222 150.783 149.418 151.858 153.039 152.072C153.721 152.115 154.36 152.115 155.084 152.115C156.533 152.029 158.109 151.815 159.856 151.299C166.247 149.452 171.616 146.659 177.197 143.179C185.207 138.238 193.259 133.34 200.161 127.239C205.189 122.771 209.62 117.701 212.986 111.429C213.923 109.667 214.605 107.949 215.031 106.23C215.585 104.125 215.84 102.02 215.883 99.8715C216.011 94.6729 214.946 89.3023 214.605 83.3733C213.625 65.93 213.795 45.6082 208.427 28.122C207.277 24.3412 205.871 20.7322 204.124 17.2521C200.46 9.99126 196.114 5.39412 191.342 2.85925C186.4 0.195502 181.074 -0.234057 175.706 0.925964C165.012 3.24601 154.232 11.8816 146.35 21.8922C144.092 24.7278 142.09 27.6493 140.3 30.6568C139.917 31.2583 139.576 31.8598 139.235 32.4613C137.318 35.7696 135.699 39.1637 134.293 42.6437C130.416 52.1387 128.328 62.1062 127.689 72.2457C126.155 95.3172 131.992 119.334 140.854 140.859C141.706 142.964 142.601 144.983 143.496 147.046C143.794 147.69 144.05 148.292 144.348 148.936L141.621 150.826Z" fill="#FDCD69"/>
<path d="M199.779 197.571C202.421 199.075 205.147 200.45 207.917 201.739C211.325 203.329 214.819 204.746 218.313 205.906C224.618 208.012 230.967 209.258 236.974 209.215C248.818 209.129 262.623 202.555 272.635 196.626C274.084 195.767 275.745 194.779 277.577 193.705C286.482 188.334 298.966 180.3 305.91 170.977C310.086 165.392 312.259 159.291 310.469 153.061C310.256 152.245 309.958 151.471 309.574 150.655C302.971 136.004 292.404 123.674 279.665 114.866C277.876 113.663 276.086 112.503 274.254 111.386C272.72 110.484 271.187 109.625 269.568 108.851C257.68 102.879 244.515 99.8289 231.265 100.516C223.979 100.903 216.694 102.407 209.536 105.199C193.431 111.472 179.754 123.502 168.123 136.864C165.354 140.043 162.669 143.265 160.113 146.531C158.068 149.151 156.066 151.772 154.148 154.393L155.469 155.682C155.639 156.412 155.853 157.143 156.108 157.83C156.662 159.377 157.344 160.88 158.196 162.384C162.542 170.118 170.338 177.035 176.644 182.019C179.456 184.21 182.524 186.53 185.847 188.85C190.193 191.857 194.922 194.822 199.779 197.571Z" fill="#FDCD69"/>
<path d="M190.491 284.186C177.795 277.011 167.782 264.208 160.539 249.772C152.657 234.09 148.056 216.518 146.863 202.082C146.139 193.662 145.798 185.112 146.65 176.734C147.332 169.903 148.865 163.2 151.72 156.799L161.391 152.502C162.883 152.374 164.374 152.288 165.908 152.331C172.639 152.416 179.627 153.963 186.316 156.326C190.534 157.787 194.667 159.591 198.544 161.525C200.631 162.556 202.634 163.63 204.594 164.747C208.258 166.809 211.283 169.086 213.924 171.578C220.358 177.593 224.491 184.811 229.987 193.146C237.954 205.219 240.638 216.991 241.064 229.88C241.277 236.883 240.851 244.187 240.212 252.049C239.701 258.064 239.786 265.325 238.551 271.899C237.571 277.226 235.696 282.038 232.032 285.346C230.072 287.108 227.558 288.44 224.363 289.127C218.313 290.459 212.604 290.674 207.235 289.943C201.185 289.084 195.647 287.065 190.491 284.186Z" fill="#FDCD69"/>
<path d="M42.9064 284.917C45.3776 285.647 48.8286 285.475 54.1118 284.573C60.5027 283.499 66.7231 281.522 72.6027 278.902C80.7404 275.25 88.3242 270.309 95.0559 264.681C107.795 254.026 118.319 245.433 126.925 234.477C130.248 230.224 133.273 225.67 136.043 220.471C136.724 219.182 137.406 217.85 138.045 216.475C139.323 213.812 140.516 211.019 141.667 208.054C142.817 205.09 144.138 201.782 145.501 198.259C148.952 189.193 152.489 178.796 153.085 169.258C153.256 166.895 153.213 164.532 152.915 162.298C152.659 160.279 152.233 158.302 151.594 156.455L155.429 155.123C154.15 154.693 152.702 154.221 151.21 153.791C148.611 153.061 145.842 152.416 143.243 152.245C140.005 152.03 136.469 152.116 132.805 152.416C121.216 153.319 108.136 156.326 98.0384 158.947C83.9359 162.599 70.8984 169.602 59.7356 179.054C50.7884 186.659 43.9289 196.025 39.1571 206.293C37.325 210.246 35.7912 214.327 34.5982 218.538C33.7887 221.33 33.107 224.166 32.5957 227.044C30.4228 238.816 30.5081 251.104 32.894 263.091C33.5331 266.27 34.3426 269.45 35.2799 272.586C37.4954 279.976 38.9015 283.714 42.9064 284.917Z" fill="#FDCD69"/>
<path d="M57.3906 155.209C64.2927 157.658 71.4931 159.033 78.864 159.677C97.8662 161.396 118.104 158.517 137.021 157.443C141.921 157.185 146.735 157.013 151.379 157.099C160.795 158.775 153.552 150.01 151.677 147.433C151.55 147.261 151.422 147.089 151.294 146.917C147.502 141.761 143.54 136.649 140.344 130.548C134.72 119.764 129.65 105.801 128.585 93.7278C128.329 90.6344 129.309 85.5647 129.821 80.8387C130.247 77.0579 130.332 73.449 129.267 71.2149C125.986 64.3407 108.986 57.5953 102.595 54.8027C101.445 54.2871 100.252 53.8146 99.1017 53.3849C93.9464 51.4945 88.578 50.2486 83.1671 49.4752C71.5357 47.8426 59.4356 48.4012 48.1877 49.3893C41.4133 49.9908 30.7619 50.2055 21.0904 52.2248C12.7397 53.9864 5.11314 57.0368 1.44904 62.8799C-2.38549 68.9807 3.45158 78.9054 5.11321 85.7366C6.09315 89.7752 7.1582 93.8998 8.47898 97.9813C9.41631 100.946 10.4389 103.91 11.6319 106.789C17.6819 121.568 27.0126 136.047 39.837 145.757C45.3757 149.967 51.2127 153.018 57.3906 155.209Z" fill="#FDCD69"/>
<path d="M179.798 0.40989C179.798 0.40989 179.073 0.581766 177.838 0.96844C177.199 1.18326 176.432 1.48406 175.537 1.82777C174.642 2.21444 173.662 2.64403 172.512 3.11663C171.404 3.63219 170.211 4.31962 168.933 5.00704C167.697 5.78039 166.334 6.63974 164.928 7.49901C163.565 8.48718 162.159 9.60415 160.668 10.7642C159.304 12.0101 157.856 13.3421 156.322 14.7599C154.958 16.3066 153.595 17.8962 152.146 19.5718C150.868 21.3763 149.547 23.2236 148.184 25.114C146.948 27.0904 145.841 29.2387 144.648 31.3869C143.455 33.535 142.603 35.941 141.538 38.2181C140.387 40.4951 139.748 43.0729 138.896 45.5648C138.086 48.0997 137.234 50.6345 136.723 53.2983C136.127 55.962 135.53 58.6258 134.891 61.2896C134.508 64.0393 134.124 66.789 133.783 69.5387L133.187 73.6632L132.889 77.8307C132.718 80.6233 132.505 83.3729 132.335 86.1226L132.207 87.9272L132.292 89.8605C132.377 91.1923 132.462 92.5242 132.59 93.856C132.803 96.5198 133.144 99.1407 133.57 101.718C134.422 106.831 135.445 111.772 136.68 116.369C137.362 118.646 137.959 120.923 138.726 122.985C139.407 125.134 140.132 127.196 140.984 129.086C141.367 130.032 141.793 130.977 142.134 131.922C142.56 132.824 142.986 133.683 143.412 134.543C144.222 136.304 144.989 137.894 145.883 139.355C147.502 142.362 149.207 144.811 150.613 146.873C152.019 148.936 153.339 150.353 154.149 151.428C155.001 152.459 155.427 153.06 155.427 153.06C155.427 153.06 154.873 152.631 153.808 151.771C152.828 150.869 151.081 149.795 149.334 147.99C147.545 146.229 145.287 144.081 143.157 141.202C142.006 139.827 140.898 138.281 139.791 136.605C139.237 135.746 138.683 134.886 138.086 134.027C137.575 133.125 137.064 132.18 136.51 131.192C134.252 127.368 132.335 122.986 130.545 118.26C128.841 113.491 127.222 108.421 126.114 103.007C125.56 100.301 125.049 97.551 124.623 94.7154C124.282 91.8798 123.728 89.0872 124.027 85.779C124.197 82.9004 124.325 80.0218 124.495 77.1002L124.708 72.718L125.305 68.3356C125.731 65.414 126.199 62.5355 126.625 59.6139C127.307 56.7783 128.031 53.8998 128.713 51.0642C129.097 49.6464 129.31 48.2285 129.864 46.8537C130.375 45.4789 130.886 44.1471 131.397 42.8152C132.42 40.1515 133.315 37.4447 134.678 34.9958C135.999 32.5469 137.021 29.969 138.555 27.7349C140.089 25.5008 141.495 23.2666 143.029 21.2473C144.69 19.314 146.267 17.3806 147.928 15.6191C149.718 14.0294 151.465 12.4828 153.126 10.9791C154.958 9.69015 156.663 8.40117 158.324 7.28412C160.114 6.29595 161.775 5.35073 163.352 4.57738C165.013 3.88996 166.505 3.15965 167.953 2.64409C169.444 2.21445 170.765 1.74186 172.001 1.44111C174.472 0.839617 176.432 0.581787 177.795 0.452896C179.073 0.366968 179.798 0.40989 179.798 0.40989Z" fill="#F8A53F"/>
<path d="M156.32 151.513C156.32 151.513 156.704 150.826 157.47 149.537C158.237 148.248 159.303 146.358 160.879 144.081C163.989 139.484 168.761 133.082 175.45 126.208C182.139 119.334 190.788 111.987 201.482 106.101C206.851 103.222 212.73 100.644 218.993 98.9687C225.214 97.1642 231.903 96.3479 238.549 96.4339C241.873 96.3909 245.196 96.9494 248.477 97.3361C251.715 98.1094 254.995 98.6251 258.02 99.7422C259.554 100.258 261.131 100.73 262.622 101.332C264.07 102.019 265.562 102.664 266.968 103.351C268.459 103.953 269.822 104.726 271.143 105.542C272.506 106.316 273.827 107.089 275.148 107.862C277.704 109.538 280.175 111.256 282.519 112.975C284.734 114.865 286.907 116.713 289.037 118.517C291.04 120.451 292.957 122.341 294.747 124.188C295.258 124.704 295.726 125.177 296.195 125.692C296.579 126.208 296.962 126.68 297.388 127.196C298.198 128.227 298.922 129.215 299.604 130.203C301.052 132.137 302.245 134.113 303.438 135.961C304.546 137.851 305.526 139.698 306.506 141.374C307.358 143.135 308.125 144.811 308.849 146.315C309.531 147.862 309.999 149.365 310.468 150.654C311.533 153.232 311.746 155.509 312.087 156.927C312.385 158.388 312.556 159.161 312.556 159.161C312.556 159.161 312.258 158.431 311.661 157.056C311.065 155.724 310.34 153.705 308.934 151.342C308.253 150.182 307.614 148.807 306.676 147.475C305.782 146.1 304.802 144.639 303.736 143.093C301.478 140.085 298.879 136.734 295.769 133.297C295.002 132.438 294.193 131.578 293.383 130.719C292.957 130.289 292.531 129.86 292.105 129.43C291.849 129.258 291.21 128.7 290.784 128.356C288.867 126.766 286.907 125.134 284.905 123.415C282.774 121.868 280.601 120.322 278.386 118.689C276.043 117.314 273.742 115.725 271.313 114.35C266.371 111.729 261.088 109.28 255.507 107.69C252.78 106.702 249.883 106.316 247.028 105.671C244.131 105.37 241.234 104.941 238.294 105.027C232.457 104.855 226.577 105.499 220.953 107.003C215.329 108.507 209.833 110.354 204.806 112.846C199.736 115.381 194.964 118.088 190.575 120.966C186.272 123.974 182.224 126.938 178.646 129.86C171.53 135.789 165.906 141.202 162.114 145.155C158.365 149.107 156.32 151.513 156.32 151.513Z" fill="#F8A53F"/>
<path d="M155.426 155.079C159.771 154.005 164.288 153.533 168.761 153.404C173.277 153.361 177.836 153.576 182.352 154.306C184.611 154.693 186.869 155.122 189.084 155.681C191.3 156.24 193.515 156.884 195.688 157.7C197.861 158.517 200.034 159.333 202.122 160.364C204.252 161.309 206.297 162.469 208.299 163.629L211.239 165.52L214.094 167.582C215.926 169.043 217.801 170.503 219.462 172.136C221.209 173.726 222.828 175.401 224.362 177.206C225.896 178.967 227.344 180.858 228.708 182.748C231.392 186.572 233.863 190.61 235.865 194.864C236.931 196.969 237.698 199.16 238.635 201.308C239.444 203.457 240.169 205.691 240.935 207.882L241.021 208.097L241.063 208.312C241.702 211.663 242.171 214.885 242.554 218.193C242.938 221.458 243.236 224.767 243.449 228.032C243.705 231.34 243.833 234.605 243.875 237.914C243.833 241.222 243.875 244.53 243.662 247.838C243.577 251.146 243.066 254.455 242.725 257.72L241.873 262.618C241.617 264.25 241.106 265.84 240.68 267.473C240.296 269.105 239.828 270.695 239.231 272.242C238.635 273.788 238.166 275.378 237.357 276.839C236.547 278.3 235.908 279.846 235.013 281.178L232.073 285.131L234.033 280.706C234.587 279.202 234.971 277.655 235.439 276.151C235.993 274.691 236.078 273.015 236.419 271.468C236.76 269.922 236.973 268.375 237.101 266.785C237.271 265.196 237.484 263.649 237.527 262.059L237.783 257.29V252.521C237.825 250.932 237.655 249.342 237.655 247.752C237.612 244.573 237.314 241.394 237.058 238.214C236.718 235.035 236.419 231.899 236.036 228.719C235.652 225.54 235.184 222.404 234.672 219.267C234.119 216.174 233.65 212.952 233.011 209.944L233.139 210.374C232.414 208.355 231.733 206.335 230.923 204.359C230.028 202.425 229.304 200.406 228.282 198.516C227.344 196.625 226.45 194.692 225.342 192.888C224.362 190.997 223.169 189.279 222.019 187.517C220.826 185.799 219.59 184.123 218.227 182.49C216.863 180.901 215.5 179.268 214.051 177.807C212.645 176.261 211.026 174.886 209.45 173.511L207.021 171.535L204.465 169.687C202.718 168.527 200.971 167.281 199.139 166.25C197.307 165.133 195.433 164.188 193.515 163.286C191.598 162.383 189.595 161.567 187.593 160.794C185.59 160.02 183.545 159.376 181.458 158.774C177.325 157.614 173.064 156.626 168.719 156.025C166.546 155.681 164.373 155.423 162.157 155.251C159.857 155.208 157.641 155.036 155.426 155.079Z" fill="#F8A53F"/>
<path d="M151.379 157.142C151.379 157.142 151.549 157.873 151.762 159.205C151.933 160.579 152.231 162.599 152.401 165.177C152.444 166.465 152.487 167.926 152.529 169.473C152.487 171.02 152.444 172.738 152.401 174.543C152.274 176.347 152.103 178.281 151.975 180.3C151.677 182.319 151.379 184.424 151.081 186.658C150.612 188.85 150.186 191.127 149.675 193.533C149.078 195.853 148.354 198.259 147.672 200.751C146.863 203.199 145.968 205.691 145.073 208.226C144.136 210.761 142.9 213.253 141.793 215.831C139.321 220.858 136.637 226.099 133.314 230.954C132.505 232.2 131.738 233.446 130.843 234.649L128.159 238.215C126.327 240.578 124.622 243.027 122.535 245.218C120.49 247.452 118.615 249.557 116.4 251.877C114.312 253.854 112.224 255.873 110.179 257.849C108.177 259.869 105.748 261.673 103.532 263.521C101.317 265.411 99.0163 267.087 96.7156 268.676C95.5653 269.493 94.4574 270.309 93.3071 271.082C92.1567 271.813 90.9637 272.5 89.8134 273.187C88.663 273.875 87.5127 274.562 86.3623 275.207C85.2119 275.851 84.0191 276.41 82.8687 277.011C80.568 278.171 78.3525 279.288 76.0518 280.105C74.9014 280.534 73.8363 280.964 72.7285 281.394C71.6208 281.737 70.5129 282.081 69.4478 282.382C65.1872 283.756 61.097 284.444 57.4755 284.831C55.6861 285.045 53.9392 285.045 52.4054 285.131C50.829 285.088 49.3805 285.045 48.1023 284.959C42.9044 284.444 40.1776 283.284 40.1776 283.284C40.1776 283.284 40.902 283.413 42.2653 283.456C43.5861 283.542 45.5886 283.456 48.1023 283.241C49.3379 283.155 50.7012 282.897 52.1925 282.682C53.6411 282.296 55.2601 282.124 56.9218 281.608C58.5834 281.093 60.3302 280.706 62.1622 279.976C63.9943 279.331 65.8689 278.687 67.7862 277.742C68.7661 277.312 69.7461 276.882 70.726 276.453C71.706 275.937 72.6858 275.422 73.7084 274.863C74.6883 274.304 75.7534 273.832 76.776 273.23C77.7559 272.629 78.7785 271.984 79.8436 271.34C80.8662 270.695 81.9313 270.094 82.9539 269.407C83.9764 268.676 84.999 267.946 86.0215 267.215C87.0441 266.485 88.1092 265.755 89.1743 264.981C90.1968 264.165 91.2194 263.349 92.2419 262.532C94.3296 260.9 96.46 259.224 98.4198 257.377C99.3998 256.474 100.422 255.572 101.445 254.627C102.467 253.725 103.49 252.823 104.512 251.791C106.558 249.772 108.603 247.753 110.648 245.691C112.522 243.628 114.354 241.523 116.186 239.461C118.189 237.442 119.851 235.122 121.597 232.93L124.196 229.622C125.048 228.505 125.773 227.302 126.54 226.185C129.735 221.631 132.632 216.991 135.189 212.308C136.382 209.945 137.575 207.625 138.725 205.348C139.747 203.028 140.855 200.751 141.793 198.473C142.645 196.196 143.497 193.962 144.306 191.814C145.031 189.623 145.712 187.518 146.394 185.455C146.948 183.393 147.502 181.374 148.013 179.484C148.439 177.55 148.865 175.746 149.249 174.027C149.589 172.309 149.845 170.676 150.143 169.172C150.356 167.668 150.569 166.251 150.782 165.005C151.038 162.47 151.294 160.493 151.379 159.119C151.379 157.873 151.379 157.142 151.379 157.142Z" fill="#F8A53F"/>
<path d="M155.428 155.08C155.428 155.08 152.318 156.369 146.736 158.045C141.112 159.72 133.017 161.868 123.048 163.415C118.063 164.188 112.609 164.833 106.815 165.177C101.02 165.52 94.885 165.649 88.4942 165.177C82.1459 164.747 75.542 164.017 68.9381 162.47C62.3342 160.88 55.7303 158.732 49.4247 155.725C43.1616 152.674 37.1967 148.807 31.9562 144.21C30.7207 143.007 29.4425 141.804 28.2069 140.601C26.9713 139.398 25.9487 138.024 24.841 136.735C23.6906 135.446 22.7108 134.071 21.7735 132.696L20.3248 130.634L19.984 130.118L19.8135 129.86L19.7284 129.732L19.5579 129.431L18.9615 128.357C15.8513 122.728 13.2948 117.186 10.9941 111.773C8.69337 106.402 6.81877 101.204 5.32756 96.3487C4.56066 93.8998 3.92156 91.5367 3.32508 89.3026C2.85642 87.0255 2.30255 84.8774 2.00431 82.8152C1.2374 78.7336 0.981727 75.0816 0.896515 72.1171C0.896515 70.6134 0.939162 69.2816 0.939162 68.1645C1.02437 67.0045 1.19474 66.0593 1.27995 65.243C1.49298 63.6963 1.57822 62.8369 1.57822 62.8369C1.57822 62.8369 1.62087 63.6533 1.74868 65.243C1.8339 66.0164 1.83384 67.0044 1.96166 68.1215C2.13208 69.2386 2.34522 70.5275 2.60085 71.9453C3.15473 74.7809 4.00678 78.175 5.19975 82.0417C6.39271 85.8655 8.05428 90.1189 9.92894 94.6731C11.8888 99.2272 14.2322 104.039 16.7459 109.066C19.3449 114.093 22.3273 119.291 25.4375 124.533L26.0341 125.521L26.5878 126.251L27.9513 128.013C28.846 129.216 29.7833 130.419 30.8484 131.493C32.8083 133.77 35.109 135.832 37.3671 137.938C42.0538 141.933 47.4222 145.284 53.1313 147.948C58.7979 150.741 64.8054 152.846 70.898 154.393C77.0333 155.854 83.1685 157.013 89.2185 157.658C95.2259 158.302 101.148 158.689 106.729 158.775C112.353 158.818 117.679 158.775 122.579 158.517C132.421 158.002 140.644 157.142 146.396 156.369C152.147 155.682 155.428 155.08 155.428 155.08Z" fill="#F8A53F"/>
<path d="M161.733 97.594C161.733 97.594 161.477 98.3674 161.051 99.7422C160.625 101.117 159.901 103.05 159.305 105.456C158.708 107.862 157.898 110.612 157.217 113.619C156.706 116.67 155.896 119.849 155.47 123.157C154.533 129.688 154.192 136.304 154.192 141.288C154.362 146.272 154.447 149.58 154.447 149.58C154.447 149.58 154.107 146.272 153.638 141.288C153.297 136.304 153.169 129.645 153.723 122.943C153.894 119.591 154.49 116.283 154.831 113.19C155.3 110.096 155.939 107.218 156.365 104.726C156.833 102.234 157.43 100.258 157.771 98.797C158.112 97.3792 158.325 96.5628 158.325 96.5628C161.563 84.1892 166.42 72.3743 171.618 60.9029C171.618 60.9029 172.981 57.8954 175.026 53.3413C177.028 48.7871 179.67 42.7293 182.141 36.5854C184.57 30.4416 186.785 24.169 188.277 19.4429C189.682 14.674 190.577 11.4946 190.577 11.4946C190.577 11.4946 189.853 14.7168 188.788 19.6147C187.595 24.4696 185.848 30.8712 183.803 37.2299C181.758 43.5885 179.5 49.8183 177.795 54.5014C176.049 59.1844 174.898 62.2778 174.898 62.2778C170.467 74.0928 165.695 85.6931 161.733 97.594Z" fill="#EFEEE9"/>
<path d="M94.0751 132.094C94.0751 132.094 97.654 133.168 103.321 134.371C108.945 135.617 116.614 136.991 124.155 138.968C131.696 140.901 139.195 143.608 143.924 147.174C146.31 148.892 147.929 150.783 148.866 152.244C149.378 152.931 149.633 153.575 149.846 153.962C150.059 154.349 150.144 154.607 150.144 154.607C150.144 154.607 150.017 154.392 149.804 154.005C149.591 153.618 149.25 153.017 148.738 152.373C147.759 150.998 146.012 149.279 143.583 147.775C138.726 144.639 131.27 142.491 123.729 141.073C116.188 139.655 108.519 138.796 102.724 137.937C96.9298 137.163 93.0526 136.261 93.0526 136.261C91.2205 135.831 89.3033 135.359 87.4712 134.628L82.2733 132.308C78.9074 130.547 75.5842 128.742 72.474 126.465C66.2535 122.126 60.6721 116.841 55.9003 110.998C55.9003 110.998 55.3038 110.225 54.196 108.85C53.0883 107.518 51.6823 105.499 49.9781 103.05C46.6548 98.1522 42.6499 91.364 39.284 84.2749C35.8755 77.2289 33.0209 69.925 30.9758 64.4686C29.9533 61.7189 29.1438 59.4419 28.5899 57.8093C28.036 56.1766 27.6952 55.2744 27.6952 55.2744C27.6952 55.2744 28.0786 56.1767 28.7177 57.7234C29.3994 59.313 30.3367 61.5471 31.5297 64.2108C33.9156 69.5383 37.239 76.5844 41.0735 83.2867C44.8654 90.032 49.2112 96.4337 52.7475 100.945C54.5369 103.222 56.0281 105.069 57.1785 106.272C58.2863 107.518 58.9252 108.206 58.9252 108.206C63.8675 113.49 69.2786 118.302 75.1582 122.384C78.0554 124.489 81.1655 126.293 84.2758 128.012L89.0476 130.418C90.7092 131.019 92.3708 131.578 94.0751 132.094Z" fill="#EFEEE9"/>
<path d="M115.803 206.722C115.803 206.722 117.806 203.8 120.66 199.289C123.515 194.778 127.221 188.634 131.184 182.619C135.104 176.604 139.535 170.847 143.199 166.937C145.073 165.004 146.65 163.415 147.885 162.426C149.078 161.395 149.717 160.794 149.717 160.794C149.717 160.794 149.078 161.438 147.971 162.512C146.82 163.586 145.371 165.262 143.625 167.281C140.216 171.406 136.254 177.335 132.76 183.564C129.267 189.794 125.986 196.153 123.387 200.879C120.831 205.605 118.956 208.741 118.956 208.741C115.42 214.627 111.415 220.427 106.472 225.411L102.68 229.02C101.402 230.223 100.167 231.426 98.7607 232.457C95.9487 234.477 93.3071 236.754 90.3673 238.558C90.3673 238.558 89.6004 239.031 88.2797 239.89C86.9163 240.706 85.0843 241.995 82.741 243.327C80.3976 244.616 77.6708 246.163 74.731 247.795C71.7912 249.385 68.6383 251.018 65.4855 252.693C59.1798 256.001 52.9168 259.438 48.3153 262.145C43.7991 264.981 40.7315 266.871 40.7315 266.871C40.7315 266.871 43.6288 264.766 47.9746 261.63C52.4056 258.622 58.413 254.755 64.5056 251.018C67.5307 249.127 70.5557 247.28 73.4103 245.518C76.1796 243.714 78.8211 241.995 81.0366 240.534C83.2521 239.074 84.999 237.699 86.2772 236.839C87.5128 235.937 88.237 235.422 88.237 235.422C91.0064 233.531 93.435 231.168 96.034 229.149C97.3974 228.161 98.5477 226.958 99.7407 225.798L103.32 222.318C107.964 217.635 111.968 212.264 115.803 206.722Z" fill="#EFEEE9"/>
<path d="M195.264 195.251C195.264 195.251 194.838 194.52 194.156 193.274C193.474 191.985 192.367 190.31 191.089 188.205C188.404 184.123 184.442 178.881 179.713 174.327C175.026 169.73 169.615 165.906 165.355 163.414C163.224 162.125 161.392 161.223 160.071 160.622C158.751 159.977 158.026 159.634 158.026 159.634C158.026 159.634 158.793 159.934 160.114 160.493C161.477 161.008 163.395 161.825 165.61 162.942C170.084 165.133 175.836 168.613 180.906 172.995C186.061 177.335 190.492 182.447 193.517 186.486C195.008 188.505 196.244 190.224 197.053 191.47C197.863 192.716 198.331 193.403 198.331 193.403C201.783 198.817 204.68 204.574 207.151 210.503C208.386 213.467 209.58 216.346 210.559 219.611C211.454 222.79 212.051 225.97 212.519 229.149C212.519 229.149 212.988 232.457 213.67 237.441C214.309 242.382 215.118 248.998 216.354 255.486C217.589 261.973 219.379 268.375 221.85 272.671C223.043 274.819 224.406 276.409 225.514 277.354C226.025 277.87 226.494 278.171 226.835 278.385C227.133 278.6 227.346 278.729 227.346 278.729C227.346 278.729 227.176 278.6 226.835 278.428C226.494 278.214 225.983 277.956 225.429 277.483C224.278 276.581 222.787 275.077 221.424 272.972C218.612 268.761 216.311 262.36 214.65 255.872C212.945 249.385 211.71 242.811 210.73 237.914C209.707 233.059 209.068 229.793 209.068 229.793C208.387 226.743 207.662 223.693 206.767 220.814C205.83 218.064 204.509 215.057 203.359 212.178C200.845 206.421 198.246 200.75 195.264 195.251Z" fill="#EFEEE9"/>
<path d="M210.264 131.664C210.264 131.664 207.111 132.136 202.467 133.125C197.823 134.156 191.687 136.003 185.765 138.323C179.886 140.815 174.176 143.78 170.214 146.572C168.126 147.818 166.678 149.236 165.527 150.052C164.42 150.955 163.781 151.427 163.781 151.427C163.781 151.427 164.377 150.869 165.4 149.923C166.465 149.021 167.828 147.474 169.831 146.1C173.58 143.006 179.204 139.655 184.956 136.733C190.835 133.941 196.928 131.621 201.657 130.289C206.344 128.957 209.539 128.227 209.539 128.227C215.547 126.852 221.81 125.993 228.115 125.907C234.421 125.864 240.769 127.024 246.734 129C246.734 129 247.501 129.301 248.864 129.773C250.228 130.203 252.102 131.105 254.318 132.136C258.834 134.156 264.373 137.893 269.315 142.061C274.3 146.185 279.242 150.267 283.375 152.759C284.398 153.361 285.335 153.962 286.187 154.435C287.082 154.821 287.849 155.208 288.488 155.466C289.766 156.024 290.49 156.368 290.49 156.368C290.49 156.368 289.723 156.11 288.403 155.595C287.721 155.337 286.911 155.036 286.017 154.692C285.122 154.306 284.142 153.747 283.077 153.189C278.731 150.997 273.448 147.174 268.208 143.393C263.01 139.569 257.513 136.433 253.082 134.8C250.867 133.941 249.077 133.21 247.714 132.867C246.393 132.48 245.626 132.265 245.626 132.265C239.875 130.761 233.995 129.902 228.03 129.945C222.236 130.117 216.271 130.719 210.264 131.664Z" fill="#EFEEE9"/>
<path d="M208.642 152.458C208.642 152.458 208.046 152.287 206.98 151.986C206.469 151.857 205.83 151.642 205.106 151.427C204.339 151.256 203.529 151.127 202.592 150.912C200.76 150.525 198.587 150.095 196.244 149.924C193.9 149.58 191.387 149.451 188.873 149.365C183.845 149.15 178.775 149.494 174.984 149.838C171.192 150.31 168.678 150.611 168.678 150.611C168.678 150.611 171.192 150.138 174.898 149.408C178.648 148.85 183.718 148.162 188.83 147.99C191.387 147.904 193.943 147.861 196.329 148.033C198.757 148.076 200.973 148.334 202.89 148.635C203.87 148.764 204.722 148.892 205.532 148.978C206.299 149.15 206.98 149.279 207.534 149.408C208.642 149.666 209.281 149.795 209.281 149.795C211.71 150.224 214.01 151.212 216.354 151.986C218.654 152.845 220.913 153.747 223.128 154.864C227.559 157.013 231.734 159.633 235.782 162.34C235.782 162.34 237.912 163.758 241.065 165.906C244.218 168.011 248.479 170.761 252.995 173.038C257.468 175.315 262.283 176.948 265.99 177.721C267.822 178.194 269.398 178.366 270.506 178.494C271.614 178.666 272.253 178.752 272.253 178.752C272.253 178.752 271.614 178.709 270.506 178.623C269.398 178.537 267.822 178.452 265.904 178.108C262.112 177.592 257.128 176.26 252.398 174.241C247.669 172.265 243.153 169.773 239.83 167.839C236.506 165.906 234.333 164.66 234.333 164.66C230.158 162.254 225.983 159.848 221.722 157.786C217.547 155.724 213.158 153.833 208.642 152.458Z" fill="#EFEEE9"/>
<path d="M169.19 192.071C169.19 192.071 169.147 191.512 169.062 190.567C169.019 189.622 168.849 188.29 168.593 186.701C168.338 185.111 168.125 183.22 167.486 181.33C167.23 180.342 166.932 179.354 166.634 178.366C166.25 177.377 165.739 176.432 165.313 175.444C164.844 174.499 164.461 173.468 163.949 172.565C163.353 171.663 162.756 170.804 162.203 169.988C161.649 169.128 161.095 168.312 160.541 167.539C159.987 166.808 159.348 166.164 158.794 165.562C156.621 163.156 155.13 161.524 155.13 161.524C155.13 161.524 156.706 163.027 159.05 165.305C159.604 165.906 160.328 166.465 160.924 167.195C161.478 167.925 162.117 168.742 162.756 169.515C163.396 170.331 164.035 171.191 164.716 172.05C165.313 172.952 165.781 173.94 166.335 174.928C166.847 175.917 167.443 176.862 167.912 177.85C168.295 178.881 168.636 179.869 169.02 180.857C169.829 182.791 170.212 184.724 170.553 186.357C170.937 187.989 171.235 189.364 171.32 190.309C171.448 191.255 171.533 191.813 171.533 191.813C172.726 200.148 172.854 208.44 173.877 216.603C173.877 216.603 174.814 225.239 177.029 233.66C178.094 237.87 179.543 241.995 181.034 244.873C181.759 246.334 182.526 247.451 183.079 248.225C183.676 248.955 184.017 249.385 184.017 249.385C184.017 249.385 183.633 248.998 182.994 248.311C182.398 247.58 181.546 246.506 180.694 245.088C178.989 242.253 177.242 238.214 175.879 234.047C173.067 225.712 171.533 216.99 171.533 216.99C169.957 208.698 169.786 200.277 169.19 192.071Z" fill="#EFEEE9"/>
<path d="M115.593 176.518C115.593 176.518 115.934 176.174 116.573 175.616C117.212 175.057 118.149 174.241 119.214 173.296C121.43 171.363 124.498 168.999 127.863 167.023C129.525 165.992 131.357 165.305 132.976 164.488C134.723 163.973 136.342 163.5 137.748 163.07C140.602 162.727 142.52 162.555 142.52 162.555C142.52 162.555 140.645 162.899 137.791 163.414C136.47 163.93 134.893 164.488 133.232 165.133C131.698 166.035 129.951 166.808 128.417 167.925C125.265 170.074 122.41 172.608 120.407 174.628C119.385 175.659 118.533 176.475 117.979 177.077C117.425 177.678 117.084 178.065 117.084 178.065C112.142 183.392 107.327 188.978 101.916 194.004C101.916 194.004 100.51 195.336 98.295 197.227C97.1446 198.129 95.8238 199.203 94.4178 200.363C92.884 201.394 91.3501 202.554 89.6885 203.585C87.9843 204.488 86.3653 205.562 84.661 206.249C82.9568 206.893 81.423 207.624 80.0597 208.011C77.2477 208.698 75.373 209.128 75.373 209.128C75.373 209.128 77.2051 208.569 79.9318 207.667C81.2952 207.194 82.7437 206.335 84.3628 205.605C85.9818 204.831 87.5157 203.628 89.1347 202.683C90.6685 201.566 92.1171 200.32 93.5231 199.246C94.8439 198.043 96.0369 196.883 97.102 195.938C99.1471 193.918 100.425 192.501 100.425 192.501C105.41 187.173 110.182 181.588 115.593 176.518Z" fill="#EFEEE9"/>
<path d="M121.685 123.158C121.685 123.158 122.026 123.501 122.622 124.103C123.219 124.704 124.029 125.564 125.094 126.552C127.181 128.528 130.121 131.063 132.933 133.77C134.382 135.058 135.702 136.519 136.981 137.851C138.216 139.226 139.239 140.601 140.176 141.718C141.752 144.167 142.818 145.799 142.818 145.799C142.818 145.799 141.667 144.253 139.963 141.89C138.941 140.859 137.875 139.57 136.555 138.281C135.191 137.078 133.828 135.746 132.294 134.543C129.312 132.094 126.244 129.731 123.986 127.884C122.836 126.981 121.941 126.122 121.302 125.563C120.663 125.005 120.279 124.661 120.279 124.661C114.527 119.634 110.863 112.674 108.392 105.628C108.392 105.628 108.222 105.156 107.923 104.339C107.71 103.523 107.37 102.32 106.944 100.902C106.517 99.4845 106.091 97.8089 105.751 96.0044C105.367 94.1999 104.941 92.3096 104.728 90.3333C104.089 86.4665 103.791 82.5567 103.535 79.6352C103.365 76.7137 103.279 74.7803 103.279 74.7803C103.279 74.7803 103.492 76.7137 103.833 79.6352C104.259 82.5138 104.813 86.3805 105.708 90.1184C106.049 92.0088 106.603 93.8992 107.114 95.6177C107.583 97.3792 108.051 98.9689 108.605 100.301C109.074 101.676 109.5 102.793 109.756 103.566C110.096 104.339 110.267 104.769 110.267 104.769C113.121 111.557 116.53 118.045 121.685 123.158Z" fill="#EFEEE9"/>
<path d="M170.723 119.247C170.723 119.247 169.658 120.622 168.081 122.684C167.357 123.758 166.505 125.004 165.568 126.336C164.716 127.711 163.906 129.258 163.096 130.762C162.457 132.394 161.69 133.941 161.222 135.488C160.838 137.077 160.327 138.538 160.114 139.827C159.816 142.448 159.603 144.166 159.603 144.166C159.603 144.166 159.688 142.405 159.816 139.784C159.944 138.452 160.327 136.948 160.625 135.316C161.009 133.683 161.69 132.05 162.244 130.332C163.011 128.742 163.693 127.11 164.503 125.606C165.355 124.188 166.121 122.813 166.803 121.653C168.294 119.462 169.274 118.001 169.274 118.001C173.194 112.502 177.753 107.604 182.141 102.62C182.141 102.62 183.292 101.288 184.953 99.3121C185.763 98.281 186.7 97.0779 187.68 95.789C188.617 94.4572 189.597 92.9963 190.577 91.5785C191.387 90.0318 192.324 88.5711 193.006 87.0674C193.602 85.5637 194.241 84.1459 194.71 82.9429C195.392 80.4081 195.86 78.7324 195.86 78.7324C195.86 78.7324 195.52 80.451 194.966 83.0288C194.625 84.3177 194.071 85.7355 193.517 87.3252C192.921 88.8719 192.069 90.4186 191.344 92.0512C190.449 93.5549 189.597 95.1446 188.703 96.5195C187.765 97.8943 186.913 99.1832 186.146 100.257C184.57 102.363 183.505 103.78 183.505 103.78C179.457 109.237 174.898 114.135 170.723 119.247Z" fill="#EFEEE9"/>
<path d="M161.901 152.244C163.137 155.853 161.262 159.806 157.683 161.052C154.104 162.341 150.184 160.407 148.949 156.798C147.671 153.189 149.588 149.237 153.124 147.991C156.703 146.745 160.623 148.635 161.901 152.244Z" fill="#EFEEE9"/>
</svg>
