<svg width="60" height="94" viewBox="0 0 60 94" fill="none" xmlns="http://www.w3.org/2000/svg">
<path d="M2.29641 50.1255L58.1725 93.7882C58.3185 93.9032 58.494 93.9747 58.6788 93.9944C58.8636 94.0141 59.0502 93.9813 59.2171 93.8998C59.3841 93.8182 59.5247 93.6911 59.6227 93.5332C59.7208 93.3753 59.7724 93.1929 59.7715 93.007L59.7715 83.4213C59.7715 82.8136 59.4864 82.2308 59.0154 81.8588L14.3938 47.0005L59.0154 12.1423C59.4988 11.7702 59.7715 11.1874 59.7715 10.5798L59.7715 0.994064C59.7715 0.163223 58.8171 -0.295601 58.1725 0.212822L2.29641 43.8755C1.8215 44.2462 1.43732 44.7203 1.17307 45.2618C0.908829 45.8033 0.771481 46.3979 0.771481 47.0005C0.771481 47.6031 0.908829 48.1978 1.17307 48.7393C1.43732 49.2808 1.8215 49.7549 2.29641 50.1255Z" fill="black" fill-opacity="0.85"/>
</svg>
