<svg width="717" height="164" viewBox="0 0 717 164" fill="none" xmlns="http://www.w3.org/2000/svg">
<path d="M460.768 95.5007C463.619 93.7497 465.889 91.4296 469.426 91.4547C471.818 91.4716 474.648 91.3723 476.514 90.141C479.705 88.0352 482.959 88.4651 486.289 88.4245C489.795 88.3817 493.303 88.4149 496.772 88.4149C497.758 83.8061 495.036 80.2769 490.657 80.274C490.14 80.2737 489.597 80.3781 489.109 80.2576C485.045 79.2542 483.302 82.3436 480.956 84.6576C479.736 85.8612 477.897 86.7 476.202 87.0689C474.323 87.4777 472.289 87.1673 470.323 87.1615C465.507 87.1473 462.583 84.2718 462.385 79.589C462.349 78.7396 461.511 77.9453 461.142 77.0827C460.883 76.4765 460.471 75.6549 460.68 75.1751C461.696 72.848 462.913 70.6112 464.021 68.3244C464.242 67.8706 464.301 67.3375 464.202 67.7034C465.763 66.3928 466.77 65.5486 467.775 64.7027C468.288 64.2713 468.733 63.6151 469.32 63.4423C471.805 62.7099 474.453 62.4125 476.819 61.4177C481.54 59.4324 486.513 59.7103 491.347 59.743C496.498 59.7778 502.001 59.9437 506.682 61.7823C510.879 63.4307 515.979 65.185 518.241 69.7134C519.943 73.1187 522.895 76.2215 522.163 80.6958C521.967 81.8898 523.085 83.2779 523.503 84.6078C523.743 85.3711 523.904 86.1963 523.905 86.9941C523.93 99.205 524.135 111.423 523.746 123.621C523.666 126.112 521.521 128.664 519.984 130.953C516.413 136.271 510.869 133.785 506.134 134.018C502.742 134.185 500.564 131.59 500.03 127.839C499.495 128.037 498.694 128.094 498.566 128.42C497.93 130.034 497.053 130.957 495.152 131.104C494.157 131.181 493.312 132.553 492.268 132.821C489.859 133.439 486.581 132.906 485.079 134.348C482.06 137.248 478.854 135.442 475.805 135.93C475.139 136.037 474.345 135.098 473.56 134.76C472.87 134.463 472.109 134.161 471.379 134.16C468.492 134.158 466.168 133.032 463.643 131.601C461.744 130.523 460.048 129.579 458.479 127.982C457.358 126.842 456.854 125.531 456.046 124.401C453.295 120.553 453.225 116.304 453.044 111.253C452.21 112.292 451.352 112.865 451.332 113.466C451.223 116.736 449.972 119.33 447.662 121.628C446.265 123.017 445.605 125.275 444.074 126.385C441.516 128.24 438.544 129.525 435.711 130.979C434.281 131.713 432.803 132.376 431.293 132.917C429.872 133.427 428.398 133.854 426.911 134.096C425.397 134.343 423.618 133.553 422.666 135.603C422.513 135.933 421.552 135.988 420.964 135.991C414.548 136.017 408.13 136.042 401.715 135.957C401.033 135.947 400.368 135.22 399.682 134.849C399.201 134.589 398.719 134.231 398.203 134.156C394.988 133.69 391.722 133.482 388.558 132.792C386.944 132.44 385.404 131.413 384.011 130.429C380.812 128.171 377.65 125.843 374.643 123.337C373.878 122.7 373.484 121.317 373.377 120.23C373.115 117.561 373.075 114.867 373.03 112.181C372.986 109.632 373.751 107.828 375.587 105.56C379.677 100.508 384.744 100.43 389.9 101.168C392.168 101.493 395.308 102.789 396.335 105.527C397.645 109.022 400.577 110.405 403.336 112.153C406.225 113.984 409.423 113.923 412.684 114.25C415.763 114.559 417.517 112.199 420.118 111.811C421.087 111.666 421.979 111 422.95 110.551C423.353 109.528 423.798 108.327 424.297 107.15C425.299 104.782 424.463 102.416 422.853 101.182C420.755 99.5739 417.542 99.3836 415.57 97.6852C412.847 95.3409 408.734 98.373 406.646 94.7906C406.554 94.6324 406.06 94.7162 405.754 94.68C402.22 94.2618 398.129 94.8147 395.297 93.1677C392.032 91.2693 388.352 90.9812 385.02 89.1278C380.749 86.7521 378.662 82.5957 374.848 80.1315C373.92 79.5319 373.248 77.8789 373.193 76.676C373.02 72.8977 370.038 69.7277 371.092 65.6766C371.474 64.212 371.317 62.5411 371.124 61.0001C370.518 56.1633 372.633 51.6005 374.81 48.1165C376.931 44.7212 379.727 40.6578 384.654 39.3722C387.333 38.6732 389.572 36.2945 392.05 34.7406C392.44 34.4967 393.05 34.6077 393.558 34.5607C395.368 34.3933 397.46 35.2688 398.682 32.9306C398.866 32.5786 400.036 32.6918 400.751 32.6901C407.271 32.6743 413.791 32.6732 420.312 32.6852C422.394 32.689 426.962 34.5521 429.955 36.2352C431.245 36.9606 432.821 37.1933 434.287 37.5707C438.854 38.7464 441.091 42.7875 444.206 45.7433C444.59 46.1069 445.047 46.7076 445.008 47.1577C444.645 51.3422 446.007 55.6272 443.879 59.7376C442.666 62.08 439.775 64.6095 437.177 64.6175C435.831 64.6217 434.47 64.4848 433.143 64.6413C427.255 65.3353 422.962 63.2783 420.151 57.816C419.52 56.5894 417.631 55.7832 416.155 55.2926C413.993 54.574 412.076 52.1254 409.611 53.4162C406.63 54.9772 402.611 54.5406 400.669 58.1446C398.361 62.4278 399.975 65.8708 403.73 67.7137C408.357 69.9841 413.726 69.6959 418.282 71.3037C421.67 72.4993 425.208 72.4101 428.572 73.6728C431.79 74.8808 435.326 75.8276 438.421 77.3099C441.792 78.9247 445.108 81.3306 447.471 84.2077C449.463 86.6341 449.501 90.6438 451.391 93.2154C454.764 97.8053 452.053 102.823 453.394 107.477C453.554 107.398 454.031 107.248 454.02 107.156C453.382 101.662 457.458 98.9458 460.768 95.5007ZM479.831 110.77C479.853 114.581 482.483 117.398 486.199 117.136C487.602 117.037 488.888 115.801 490.313 115.383C494.734 114.085 497.845 108.826 496.721 103.935C493.412 105.133 489.985 102.867 486.256 105.583C484.211 107.072 481.072 107.258 479.831 110.77Z" fill="#FB2062"/>
<path d="M212.179 86.3795C212.119 85.2346 212.062 84.3605 212.005 83.4864C211.712 83.4688 211.42 83.4511 211.128 83.4335C211.063 84.4413 210.943 85.449 210.942 86.4568C210.929 98.7681 210.917 111.079 210.945 123.391C210.953 126.683 208.804 128.664 207.003 131.049C202.683 136.769 196.779 133.709 191.694 133.795C189.657 133.829 186.547 130.539 185.721 128.135C184.425 124.36 184.312 120.056 184.287 115.971C184.163 95.523 184.233 75.0734 184.228 54.6243C184.227 51.2187 185.841 48.3831 186.895 45.3069C188.195 41.5163 191.153 40.0267 193.388 37.6638C194.939 36.0243 197.069 34.3466 199.879 34.5214C202.662 34.6945 205.478 34.7397 208.254 34.5189C212.956 34.1451 216.221 36.4263 219.561 39.4448C223.941 43.4033 225.149 48.4942 226.737 53.7977C227.35 55.8465 227.886 58.2141 228.96 60.2339C229.092 60.4831 229.426 60.6465 229.502 60.8998C230.577 64.4787 231.117 68.3379 232.822 71.5743C234.49 74.7398 234.604 78.3545 236.068 81.2145C237.647 84.2997 237.946 87.4572 238.994 90.5153C239.422 91.7656 240.952 92.6323 242.14 93.8354C242.783 90.5922 243.185 87.8575 243.895 85.2069C244.458 83.107 245.433 81.1222 246.164 79.0647C247.081 76.4891 247.99 73.9083 248.787 71.2938C249.061 70.3925 250.378 67.7404 251.555 66.3934C251.74 66.1806 251.872 65.8478 251.885 65.5638C252.046 62.0179 252.927 58.8182 254.859 55.6984C256.006 53.8455 255.31 50.871 256.378 48.9222C258.992 44.1532 260.6 38.9581 266.51 36.1393C272.437 33.3126 278.081 35.4094 283.789 34.7146C285.054 34.5606 286.674 36.0203 287.879 37.04C289.671 38.5564 291.338 40.257 292.856 42.0528C293.539 42.8603 293.796 44.0666 294.14 45.1271C298.282 57.9021 295.357 71.0301 295.893 83.9814C296.435 97.1045 296.109 110.269 295.938 123.413C295.9 126.37 294.011 128.722 292.082 131.047C287.681 136.352 281.896 133.395 276.741 134.032C275.82 134.146 274.542 133.254 273.787 132.474C270.44 129.017 269.059 124.995 269.196 119.964C269.539 107.351 269.309 94.7228 269.309 81.7642C268.66 81.9836 267.813 82.0391 267.717 82.3387C266.927 84.8136 266.712 87.5884 265.462 89.7703C264.146 92.0658 265.492 95.1289 262.771 97.0347C261.732 97.7624 261.71 100.012 261.292 101.587C260.621 104.11 260.249 106.745 259.305 109.156C258.073 112.304 257.793 115.867 255.442 118.561C255.151 118.895 255.188 119.504 255.024 119.967C254.011 122.819 253.5 126.031 251.835 128.425C249.567 131.688 246.97 135.165 241.92 134.193C239.924 133.808 237.793 134.133 235.724 134.129C231.362 134.119 230.68 132.391 228.05 128.909C225.775 125.896 226.366 121.986 223.612 119.382C222.665 118.486 222.715 116.52 222.311 115.042C221.622 112.524 221.056 109.963 220.206 107.501C219.606 105.764 218.524 104.202 217.836 102.488C217.086 100.619 216.475 98.6861 215.928 96.7453C215.224 94.2474 214.742 91.6821 213.959 89.2122C213.658 88.264 212.79 87.4988 212.179 86.3795Z" fill="#FB2062"/>
<path d="M30.2196 47.7251C30.3422 41.2039 37.1583 36.4753 42.5792 39.0725C43.7055 39.6121 44.5193 41.2008 45.0785 42.4829C46.5039 45.7514 47.5416 49.1997 49.0893 52.4017C49.5808 53.4186 51.3325 53.7374 52.2571 54.6374C53.897 56.2336 54.433 54.1821 55.4456 53.8122C59.635 52.2817 61.4628 49.3057 61.4097 44.7405C61.3946 43.449 62.8583 41.8732 64.0248 40.8853C67.3405 38.0773 71.6339 38.1522 75.2335 40.837C75.6344 41.136 76.2049 41.7768 76.1143 42.0848C75.1622 45.3203 77.3207 47.8071 78.1593 50.5669C78.4946 51.6707 79.9303 52.4675 80.9356 53.3195C81.5794 53.8651 82.3249 54.3094 83.0764 54.6978C83.5744 54.9552 84.5888 55.2684 84.6496 55.1567C86.0358 52.6099 89.5745 52.9322 90.8919 49.4926C91.7886 47.1515 91.9974 45.0189 92.3679 42.735C92.4809 42.0377 93.1732 41.4478 93.5509 40.7803C95.1414 37.9694 97.8422 39.2846 100.112 38.9162C102.887 38.4656 104.162 40.2337 105.435 42.1784C105.958 42.9774 107.202 43.7432 107.131 44.4193C106.622 49.2915 108.992 52.0069 113.254 53.5706C114.143 53.8969 115.557 55.0468 115.666 54.9155C117.499 52.7192 121.996 52.8273 121.462 48.671C120.949 44.6758 123.347 41.9542 125.518 39.4102C126.35 38.4356 129.016 39.0754 130.843 38.9375C133.92 38.7054 135.672 39.8894 136.524 43.1018C137.357 46.2397 138.767 49.2637 140.268 52.1566C140.795 53.1739 142.573 53.4586 143.371 54.4224C144.861 56.2239 145.493 54.1429 146.511 54.026C149.422 53.6919 150.691 51.2425 151.925 49.3826C152.816 48.0389 152.689 45.247 151.897 43.6749C149.666 39.2494 146.765 35.1734 144.32 30.8493C143.295 29.0359 143.259 26.4143 141.89 25.086C138.691 21.9824 141.006 18.2023 139.779 14.5199C138.88 14.5199 137.785 14.5199 136.691 14.5199C117.544 14.5198 98.3978 14.5219 79.2513 14.5181C74.7325 14.5172 71.1695 8.64141 73.3427 4.61633C74.9014 1.72944 76.8626 -0.0468095 80.7459 0.000939078C101.028 0.250327 121.314 0.123376 141.599 0.111632C145.355 0.109457 148.268 2.1458 150.575 4.64429C153.231 7.52205 155.001 11.0589 154.477 15.3394C154.366 16.2412 154.706 17.4424 155.277 18.1424C157.428 20.7809 159.134 23.502 160.213 26.8672C160.99 29.292 163.33 31.2085 164.979 33.3467C165.149 33.5679 165.462 33.7207 165.544 33.962C166.72 37.4344 168.143 40.8375 167.504 44.685C167.251 46.2077 167.352 47.8184 167.484 49.3725C167.812 53.2478 165.935 56.145 164.206 59.4264C163.026 61.6652 161.806 63.5608 160.013 65.1585C158.746 66.2874 157.418 67.6363 155.884 68.1C153.856 68.7127 154.448 70.0561 154.443 71.2324C154.402 79.9988 154.207 88.7733 154.523 97.5281C154.655 101.178 152.591 103.296 150.184 104.393C147.676 105.537 144.421 105.202 142.093 102.989C140.836 101.795 140.006 100.408 140.056 98.3074C140.255 89.8588 140.081 81.4019 140.17 72.9494C140.2 70.1101 138.911 68.9665 136.289 68.2751C134.345 67.7626 132.656 66.3015 130.817 65.332C130.325 65.0727 129.61 64.822 129.158 64.9953C128.212 65.359 127.39 66.0375 126.487 66.5315C124.518 67.6084 122.553 68.697 120.539 69.6817C119.841 70.0231 119.011 70.145 118.226 70.2428C111.348 71.1001 105.327 68.8882 99.7828 64.9733C99.4686 64.7515 99.047 64.6844 98.6324 64.5292C96.9424 66.7949 94.8387 67.7426 92.1565 68.6838C88.8382 69.8482 85.7184 70.2392 82.3804 70.2508C78.8638 70.263 73.2471 67.7747 70.4965 65.0601C70.2479 64.8148 69.6518 64.5657 69.4483 64.6933C67.917 65.6538 66.4401 66.7031 64.956 67.7391C64.7285 67.8978 64.5859 68.2299 64.3462 68.314C59.5029 70.0145 54.522 70.6727 49.4068 70.2457C48.8162 70.1964 43.7992 67.3106 43.1344 66.9291C41.6661 66.0865 40.1678 65.1785 38.5631 64.7624C38.018 64.6211 37.196 66.0314 36.3629 66.4622C34.2149 67.5731 32.0621 68.7685 29.7736 69.4799C27.8742 70.0704 25.7846 70.1284 23.7696 70.2339C16.4756 70.6157 10.6734 67.1316 5.60209 62.4271C4.13125 61.0627 4.08335 58.2544 2.82695 56.517C-0.856396 51.4236 1.86094 45.7523 1.0684 40.4209C0.831879 38.8298 3.07148 34.7448 4.27078 33.1964C5.23996 31.9452 5.84312 30.4002 6.57244 28.9667C7.85835 26.4393 9.10253 23.8903 10.4 21.3691C10.6244 20.933 10.9716 20.5208 11.3542 20.2148C13.4136 18.5682 14.2824 16.474 14.0912 13.8122C13.7291 8.76962 16.9789 5.32538 20.1272 2.34018C21.793 0.760778 24.9616 0.26708 27.4719 0.211587C37.7129 -0.0148029 47.9624 0.187427 58.207 0.0702139C60.9421 0.0389194 62.1969 1.45522 63.1788 3.66764C63.623 4.66853 64.6223 5.4583 64.9213 6.47762C65.6984 9.12656 63.9047 10.8106 62.3997 12.6412C60.7595 14.6363 58.6759 14.5622 56.4343 14.5466C47.2293 14.4826 38.0237 14.5199 28.5348 14.5199C28.4712 15.5015 28.3187 16.3987 28.3719 17.2832C28.6191 21.3934 27.6369 24.8142 24.8636 28.1896C22.4539 31.1224 21.3734 35.1535 19.6184 38.6548C19.1988 39.492 18.3738 40.1116 17.8354 40.9008C14.0925 46.3868 15.3514 50.4902 21.7272 53.4324C22.6852 53.8744 24.2044 55.0827 24.4074 54.8768C26.5108 52.744 30.9566 52.5269 30.2196 47.7251Z" fill="#FB2062"/>
<path d="M154.422 125.99C154.422 129.953 153.971 133.679 154.547 137.235C155.133 140.851 153.89 144.258 152.257 146.535C150.012 149.666 146.904 152.934 142.172 152.931C103.794 152.904 65.4153 152.874 27.0372 152.977C22.9974 152.988 20.2951 150.939 17.8573 148.322C14.9372 145.187 13.9406 141.391 13.9921 136.975C14.1918 119.87 14.0705 102.761 14.0756 85.6536C14.0766 82.4433 15.5964 80.9167 18.767 80.9013C20.1118 80.8947 21.4566 80.8999 22.8014 80.9002C27.1987 80.9015 28.3558 82.0348 28.356 86.3499C28.3569 102.31 28.3563 118.27 28.3563 134.23C28.3563 135.351 28.3563 136.471 28.3563 137.738C31.4858 137.738 34.3471 137.738 37.6715 137.738C37.6715 136.689 37.6715 135.594 37.6715 134.498C37.6717 119.477 37.6689 104.456 37.6744 89.4345C37.6756 86.2281 39.205 84.663 42.3441 84.6611C53.8266 84.654 65.309 84.6504 76.7915 84.6635C79.9227 84.667 81.7562 86.5283 81.7584 89.7003C81.7687 104.513 81.763 119.326 81.7631 134.138C81.7631 135.267 81.7631 136.396 81.7631 137.705C101.252 137.705 120.532 137.705 140.139 137.705C140.139 130.376 140.135 123.108 140.14 115.84C140.143 112.179 141.962 110.381 145.689 110.334C151.828 110.256 154.421 112.861 154.422 119.105C154.422 121.296 154.422 123.486 154.422 125.99ZM66.8588 123.797C66.8588 115.808 66.8588 107.82 66.8588 99.928C61.8421 99.928 57.2504 99.928 52.7315 99.928C52.7315 112.655 52.7315 125.141 52.7315 137.702C57.479 137.702 62.0684 137.702 66.8588 137.702C66.8588 133.153 66.8588 128.788 66.8588 123.797Z" fill="#FB2062"/>
<path d="M578.9 130.835C576.467 128.773 573.681 127.201 572.195 124.807C569.922 121.149 566.155 118.231 566.078 113.277C566.045 111.174 565.942 108.582 564.774 107.077C561.163 102.425 563.948 97.2949 563.12 92.4887C563.006 91.8286 563.896 90.9996 564.303 90.2388C564.523 89.8269 564.815 89.4113 564.885 88.9671C565.338 86.0788 565.445 83.0958 566.251 80.3163C566.869 78.1862 568.182 76.1911 569.486 74.3526C570.874 72.3959 572.903 70.8703 574.128 68.8359C575.617 66.3639 578.323 66.1268 580.327 64.6572C581.88 63.5186 583.635 62.58 585.424 61.8693C587.29 61.1278 589.292 60.3727 591.256 60.3104C597.472 60.1134 603.742 59.7797 609.905 60.3853C614.649 60.8516 619.483 62.2992 623.567 64.8945C626.325 66.6468 628.603 69.3442 630.687 71.9509C632.952 74.7848 635.017 77.8641 636.645 81.1045C637.661 83.128 638.043 85.6356 638.122 87.9463C638.321 93.7794 638.304 99.6274 638.142 105.463C638.054 108.636 637.447 111.705 635.367 114.407C634.445 115.605 634.51 117.525 633.867 119.002C632.051 123.175 628.487 125.993 625.622 129.343C625.034 130.032 623.627 129.951 622.67 130.388C618.754 132.177 615.19 135.035 610.436 134.181C609.821 134.071 609.07 134.619 608.409 134.921C607.696 135.247 607.026 135.931 606.318 135.958C603.22 136.074 600.109 136.124 597.015 135.96C595.434 135.877 593.304 137.044 592.432 134.378C592.331 134.07 590.899 134.248 590.097 134.121C587.496 133.71 584.795 133.561 582.353 132.685C581.341 132.321 580.815 130.498 578.9 130.835ZM597.979 115.121C601.251 116.082 605.153 115.551 606.842 113.42C609.398 110.196 612.044 106.335 611.49 101.553C610.981 97.168 611.739 92.8249 610.532 88.2923C609.49 84.3807 606.741 82.5729 604.405 80.4809C602.268 78.5662 593.981 81.3058 593.051 83.8935C591.628 87.851 590.521 91.9834 589.847 96.1352C589.339 99.2618 590.816 102.391 591.263 105.406C591.962 110.108 595.09 111.965 597.979 115.121Z" fill="#FB2062"/>
<path d="M643.158 94.051C643.158 88.7287 643.403 83.7038 643.086 78.715C642.793 74.082 644.007 70.0075 646.122 66.0349C646.474 65.3748 646.319 64.4408 646.344 64.1887C655.338 57.6497 662.866 59.0597 668.47 67.4397C671.583 65.9353 674.554 65.0453 676.861 63.2759C682.291 59.1117 688.458 60.5028 694.422 60.2538C697.08 60.1428 700.197 62.3749 703.194 62.9491C706.625 63.6066 707.646 66.6149 710.212 67.8944C710.96 68.2673 711.163 69.8446 711.52 70.9029C712.374 73.4348 713.485 75.8032 714.169 78.4855C717.896 93.1126 714.761 107.885 715.767 122.535C715.979 125.609 713.936 127.805 712.259 130.297C707.852 136.848 701.515 133.153 696.075 134.038C695.63 134.11 694.958 133.369 694.536 132.88C692.028 129.966 688.661 128.014 688.94 122.942C689.514 112.538 689.115 102.08 689.112 91.6441C689.111 87.8156 685.739 83.3439 682.03 82.1073C681.604 81.9652 681.385 81.2767 680.987 80.9427C680.651 80.6611 679.985 80.2467 679.822 80.3702C678.024 81.7282 676.387 83.3193 674.525 84.5718C672.103 86.2007 672.331 88.712 671.56 91.0895C667.823 102.621 670.886 114.367 669.881 125.95C669.576 129.458 665.155 134.026 661.644 134.115C658.852 134.185 656.054 134.193 653.262 134.114C648.742 133.986 645.197 130.288 644.97 125.765C644.93 124.972 644.154 124.24 643.839 123.432C643.532 122.645 643.191 121.798 643.187 120.975C643.141 112.105 643.158 103.234 643.158 94.051Z" fill="#FB2062"/>
<path d="M326.537 162.936C323.466 163.69 322.219 161.455 320.572 159.992C317.231 157.024 315.413 153.05 316.753 148.962C317.512 146.647 316.428 143.527 319.38 141.682C320.449 141.014 320.324 138.488 320.865 136.851C321.244 135.707 321.828 134.632 322.194 133.812C321.74 132.589 321.194 131.417 320.875 130.185C320.343 128.131 319.801 126.28 318.26 124.533C317.058 123.171 316.914 120.765 316.551 118.776C316.279 117.288 315.893 116.181 315.005 114.778C313.12 111.801 312.664 107.92 311.509 104.447C311.036 103.025 310.159 101.742 309.66 100.326C308.158 96.0605 307.26 91.4813 305.144 87.5637C303.457 84.4387 302.945 81.243 301.968 78.0367C301.534 76.612 299.885 75.371 300.384 73.5069C301.005 71.1899 301.777 68.9112 302.559 66.6419C302.891 65.6759 303.411 64.7757 303.721 64.1129C310.196 59.0396 316.836 58.6975 323.757 64.2481C324.434 65.5823 325.46 67.614 326.502 69.6371C326.585 69.7972 326.87 69.8728 326.913 70.029C328.011 74.0193 329.019 78.0363 330.198 82.0016C330.845 84.1755 331.762 86.2687 332.592 88.3845C332.686 88.6267 333.138 88.7445 333.2 88.9796C333.956 91.8769 334.671 94.7853 335.423 97.7996C337.368 97.0641 338.124 95.9861 338.375 93.8015C338.709 90.8894 340.003 88.0901 340.876 85.2398C341.66 82.6812 341.994 79.85 343.331 77.6331C344.709 75.3495 343.177 72.1571 346.058 70.3822C346.758 69.951 346.119 67.6994 346.713 66.6354C349.229 62.1282 355.573 59.335 360.658 60.2407C365.506 61.1044 369.739 66.534 369.958 71.6283C370.205 77.3836 368.107 82.313 365.349 87.0986C365.199 87.3583 365.047 87.6308 364.971 87.9175C363.915 91.9175 362.942 95.9418 361.781 99.9106C361.444 101.063 360.401 101.993 359.99 103.138C358.448 107.43 357.523 112.032 355.413 116.002C353.811 119.016 353.884 122.686 352.24 125.059C350.15 128.075 350.556 131.933 347.848 134.618C346.681 135.775 346.923 138.292 346.303 140.113C344.702 144.81 343.319 149.631 341.186 154.078C339.702 157.17 337.162 159.762 334.98 162.484C334.651 162.895 333.702 162.9 333.035 162.917C330.968 162.969 328.899 162.936 326.537 162.936Z" fill="#FB2062"/>
<path d="M558.079 81.5265C558.079 95.0873 558.145 108.336 558.021 121.582C557.998 124.103 558.068 127.509 556.598 128.924C554.433 131.006 552.927 134.816 548.705 134.182C546.681 133.878 544.575 134.128 542.506 134.13C538.24 134.135 534.275 133.643 533.177 128.402C529.892 127.07 531.458 124.197 531.449 122.076C531.338 95.1636 531.449 68.2503 531.304 41.3384C531.28 36.8488 537.202 30.8599 541.302 31.3804C543.441 31.6519 545.678 31.684 547.805 31.3699C551.22 30.8655 553.087 32.8898 554.935 35.1525C557.559 38.3651 558.107 42.1595 558.093 46.1643C558.054 57.8472 558.079 69.5303 558.079 81.5265Z" fill="#FB2062"/>
<path d="M130.823 107.828C130.823 112.519 130.76 116.899 130.849 121.275C130.894 123.484 129.626 124.344 127.966 125.448C124.756 127.581 121.302 127.217 117.84 127.234C111.845 127.263 105.849 127.226 99.8531 127.248C96.616 127.26 93.9021 126.017 91.6816 123.735C91.0812 123.118 90.515 122.132 90.5091 121.312C90.4317 110.575 90.4416 99.8381 90.4708 89.1011C90.4771 86.7923 92.5197 84.6799 94.7761 84.673C105.527 84.6398 116.279 84.5742 127.028 84.73C129.193 84.7614 130.798 86.2711 130.811 88.7513C130.845 95.0057 130.823 101.26 130.823 107.828ZM115.919 101.989C115.419 101.223 114.965 99.8366 114.412 99.7948C111.483 99.5738 108.528 99.691 105.532 99.691C105.532 103.389 105.532 106.747 105.532 110.159C109.036 110.159 112.367 110.159 115.919 110.159C115.919 107.524 115.919 105.057 115.919 101.989Z" fill="#FB2062"/>
<path d="M651.111 141.018C653.761 140.953 656.365 140.872 657.461 143.357C658.14 144.899 657.784 146.904 657.948 149.611C658.072 150.87 658.968 153.3 658.325 155.198C657.599 157.34 655.18 158.098 652.655 157.973C648.972 157.791 645.274 157.926 641.441 157.926C641.441 152.269 641.441 146.887 641.441 141.018C644.514 141.018 647.666 141.018 651.111 141.018ZM653.346 154.092C653.473 153.154 653.599 152.216 653.736 151.199C651.076 151.199 648.773 151.199 646.43 151.199C646.43 152.437 646.43 153.508 646.43 155.041C648.696 154.749 650.753 154.484 653.346 154.092ZM652.985 146.98C652.561 146.106 652.26 144.59 651.691 144.48C649.97 144.147 648.146 144.359 646.198 144.359C646.303 145.442 646.387 146.305 646.478 147.236C648.631 147.236 650.559 147.236 652.985 146.98Z" fill="#FB2062"/>
<path d="M694.078 152.276C694.688 149.87 695.268 147.721 695.901 145.588C696.8 142.563 698.831 141.024 701.976 141.019C704.976 141.015 707.976 141.018 711.221 141.018C711.221 146.556 711.221 152.021 711.221 157.707C709.847 157.707 708.365 157.707 706.64 157.707C706.556 156.671 706.466 155.579 706.364 154.331C703.846 154.331 701.395 154.331 698.729 154.331C698.387 155.321 697.998 156.445 697.541 157.764C696.196 157.764 694.684 157.764 692.625 157.764C693.135 155.923 693.604 154.232 694.078 152.276ZM706.421 149.936C706.421 148.301 706.421 146.665 706.421 145.058C701.403 144.434 701.071 144.704 699.831 150.338C701.905 150.338 703.952 150.338 706.421 149.936Z" fill="#FB2062"/>
<path d="M674.654 157.926C670.128 157.926 665.894 157.926 661.414 157.926C661.414 152.4 661.414 146.943 661.414 141.25C666.267 141.25 671.264 141.25 676.552 141.25C676.598 142.234 676.649 143.313 676.718 144.776C673.479 144.776 670.408 144.681 667.352 144.846C666.623 144.886 665.939 145.797 665.235 146.307C665.397 146.632 665.559 146.956 665.72 147.281C668.176 147.281 670.651 147.108 673.078 147.375C673.928 147.469 674.66 148.647 675.446 149.33C674.715 150.102 674.075 151.394 673.235 151.543C671.331 151.883 669.314 151.522 667.374 151.734C666.617 151.816 665.942 152.672 665.229 153.176C665.388 153.508 665.547 153.84 665.706 154.172C668.677 154.172 671.654 154.062 674.614 154.25C675.335 154.296 676.34 155.19 676.607 155.92C677.053 157.137 676.605 158.185 674.654 157.926Z" fill="#FB2062"/>
<path d="M683.522 150.431C683.522 148.474 683.522 146.823 683.522 145.217C681.417 144.793 679.45 144.533 677.606 143.906C677.25 143.785 677.372 142.232 677.254 141.167C683.129 141.167 688.765 141.167 694.392 141.167C694.839 144.612 694.839 144.612 688.67 144.871C688.67 149.047 688.67 153.255 688.67 157.693C686.898 157.693 685.415 157.693 683.522 157.693C683.522 155.445 683.522 153.091 683.522 150.431Z" fill="#FB2062"/>
<path d="M479.834 110.504C481.073 107.258 484.212 107.072 486.256 105.583C489.985 102.867 493.412 105.133 496.721 103.935C497.845 108.826 494.734 114.086 490.313 115.383C488.888 115.801 487.602 117.037 486.2 117.136C482.484 117.398 479.853 114.581 479.834 110.504Z" fill="#F5E6E5"/>
<path d="M597.889 114.868C595.091 111.965 591.962 110.108 591.264 105.405C590.816 102.391 589.339 99.2617 589.847 96.1351C590.522 91.9833 591.629 87.8508 593.051 83.8934C593.982 81.3056 602.268 78.5661 604.406 80.4807C606.741 82.5727 609.491 84.3806 610.532 88.2921C611.739 92.8248 610.981 97.1679 611.49 101.553C612.045 106.335 609.399 110.196 606.843 113.42C605.153 115.551 601.252 116.081 597.889 114.868Z" fill="#F5E6E5"/>
<path d="M115.918 102.29C115.918 105.057 115.918 107.524 115.918 110.159C112.366 110.159 109.035 110.159 105.531 110.159C105.531 106.747 105.531 103.389 105.531 99.691C108.528 99.691 111.482 99.5737 114.411 99.7948C114.964 99.8365 115.418 101.223 115.918 102.29Z" fill="#F5E6E5"/>
<path d="M653.078 154.155C650.753 154.484 648.696 154.749 646.43 155.041C646.43 153.508 646.43 152.437 646.43 151.199C648.773 151.199 651.076 151.199 653.736 151.199C653.599 152.216 653.473 153.154 653.078 154.155Z" fill="#FB2062"/>
<path d="M652.737 147.108C650.56 147.236 648.632 147.236 646.479 147.236C646.388 146.305 646.304 145.442 646.199 144.359C648.147 144.359 649.972 144.147 651.692 144.48C652.261 144.59 652.562 146.106 652.737 147.108Z" fill="#FB2062"/>
<path d="M706.212 150.137C703.954 150.338 701.907 150.338 699.832 150.338C701.073 144.704 701.405 144.434 706.422 145.058C706.422 146.665 706.422 148.301 706.212 150.137Z" fill="#FB2062"/>
</svg>
