<svg width="148" height="147" viewBox="0 0 148 147" fill="none" xmlns="http://www.w3.org/2000/svg">
<path d="M49.3627 142C56.2412 142 61.8173 136.424 61.8173 129.545C61.8173 122.667 56.2412 117.091 49.3627 117.091C42.4843 117.091 36.9082 122.667 36.9082 129.545C36.9082 136.424 42.4843 142 49.3627 142Z" stroke="black" stroke-width="10" stroke-linecap="round" stroke-linejoin="round"/>
<path d="M124.091 142C130.97 142 136.546 136.424 136.546 129.545C136.546 122.667 130.97 117.091 124.091 117.091C117.213 117.091 111.637 122.667 111.637 129.545C111.637 136.424 117.213 142 124.091 142Z" stroke="black" stroke-width="10" stroke-linecap="round" stroke-linejoin="round"/>
<path d="M34.8528 36.1364H142.771L132.31 88.3832C131.74 91.2502 130.181 93.8256 127.904 95.6585C125.627 97.4914 122.778 98.4651 119.855 98.4091H54.0328C50.992 98.4349 48.0467 97.3472 45.7525 95.3512C43.4582 93.3552 41.9735 90.5888 41.5783 87.5736L32.1128 15.8355C31.7203 12.8416 30.2535 10.0923 27.9854 8.09911C25.7173 6.10592 22.8023 5.00457 19.7828 5L5.77148 5" stroke="black" stroke-width="10" stroke-linecap="round" stroke-linejoin="round"/>
</svg>
